<svg xmlns="http://www.w3.org/2000/svg" xmlns:xlink="http://www.w3.org/1999/xlink" width="287.349" height="227.907" viewBox="0 0 287.349 227.907">
  <defs>
    <linearGradient id="linear-gradient" x1="-0.315" y1="1" x2="-0.315" gradientUnits="objectBoundingBox">
      <stop offset="0" stop-color="gray" stop-opacity="0.251"/>
      <stop offset="0.54" stop-color="gray" stop-opacity="0.122"/>
      <stop offset="1" stop-color="gray" stop-opacity="0.102"/>
    </linearGradient>
  </defs>
  <g id="Groupe_4" data-name="Groupe 4" transform="translate(-0.032 0.004)" style="isolation: isolate">
    <path id="Tracé_1" data-name="Tracé 1" d="M347.6,55.939c9.328,1.812,18.71,4.593,26.347,10.232S387.256,80.813,386.906,90.3c-.4,10.958-8.429,20.137-17.116,26.826s-18.6,12.044-25.672,20.424c-6.508,7.711-10.114,17.429-12.951,27.116-1.435,4.952-2.742,10.077-2.3,15.216,1.074,12.084,11.36,21.518,13.878,33.38a16.559,16.559,0,0,1-.319,9.1c-2.492,6.787-10.387,9.787-17.513,10.927-23.137,3.7-46.42-3.488-69.218-8.9-10.307-2.42-20.966-4.519-31.405-2.8-18.865,3.095-33.969,18.038-52.659,22.052-14.383,3.086-29.588-.723-42.49-7.812-9.5-5.234-18.179-12.4-23.708-21.739s-7.648-21.007-4.174-31.293c5.664-16.775,24.977-28.528,24.3-46.222-.655-16.918-20.1-30.366-16.554-46.92,1.946-9.058,10.37-15.216,18.785-19.092,20.895-9.632,44.735-10.47,67.72-9.279,21.055,1.091,42.254,3.939,63.353,2.251,8.613-.689,17.082-5.013,25.583-6.856a157.964,157.964,0,0,1,29.441-3.534A155.984,155.984,0,0,1,347.6,55.939Z" transform="translate(-99.54 -53.1)" fill="#e94560" opacity="0.1"/>
    <g id="Groupe_1" data-name="Groupe 1" transform="translate(22.712 29.969)" opacity="0.1">
      <path id="Tracé_2" data-name="Tracé 2" d="M246.726,264.949s-10.154,2.357-12.962,8.156l-3.083-1.088v3.81l-6.437-1.723s4.352,2.357,1.9,5.438-9.79,8.613-9.79,8.613-4.984-4.625,1.723-13.6S239.2,259.147,246.726,264.949Z" transform="translate(-204.239 -232.521)" fill="#e94560"/>
      <path id="Tracé_3" data-name="Tracé 3" d="M220.322,230.31s-17.513-24.747-41.752-4.533c0,0,7.579.362,9.572,1.723,0,0,.092-5.168,1.814-3.807l1,3.988,5.63.824s1.3-4.622,2.871-3.807l2.11,3.991,4.533.27s.907-4.169,1.9-3.534,1.812,3.158,1.812,3.158S217.793,228.134,220.322,230.31Z" transform="translate(-178.57 -200.512)" fill="#e94560"/>
      <path id="Tracé_4" data-name="Tracé 4" d="M256.506,187.3l-4.169-10.152s.181-3.537,1.358-3.732l-2.265.907-1.9-2.176,1.358-3.534s-2.719,2.627-3.626,2.627-6.526-3.534-6.526-3.534l2.811-3.353s-3.626,3.9-6.437,2.627-12.689-5.71-9.609-6.617,9.247-5.618,19.037-.543S263.948,177.868,256.506,187.3Z" transform="translate(-213.032 -157.498)" fill="#e94560"/>
      <path id="Tracé_5" data-name="Tracé 5" d="M336.335,199.246l6.89-12.474,2.538.689-.456-3.8,5.349-3.626,1.18,1.9v-3.993l6.072-2.265,1.542,1.631s-.907-3.537,3.718-2.992,6.434-.057,6.434-.057-4.349,6.221-6.979,8.443l-3.445-1.134,1.487,3.264-6.382,3.706s-3.807-2.469-3.988-1.777l1.542,3.158S335.97,197.523,336.335,199.246Z" transform="translate(-291.037 -169.448)" fill="#e94560"/>
      <path id="Tracé_6" data-name="Tracé 6" d="M344.87,239.719s3.718-6.8,9.428-6.256l1.723,2.176s-1.542-3.626,4.622-4.881a145.356,145.356,0,0,1,15.047-1.889l1.634,3.083,1.9-3.083,6.8,3.083s-1.542,5.423-12.42,6.239l-1.723-2.63-.273,2.63-6.164,2s-1.539-3.264-2.173-2.811-.365,2.811-.365,2.811A36.761,36.761,0,0,1,344.87,239.719Z" transform="translate(-297.126 -208.38)" fill="#e94560"/>
      <path id="Tracé_7" data-name="Tracé 7" d="M338.56,271.385s1.45,9.862,3.445,11.039a21.151,21.151,0,0,0,5.621,1.814l-5.891.723,2.98,4.714,5.538,2.535-4.172.818-.273,2.446,2.357,1.088-2.719,1.177s-1.812,6.8-4.441,10.063c0,0,6.979-1.723,9.247-5.438s3.362-9.517,3.362-9.517.362-8.521-1.18-10.786S340.28,270.768,338.56,271.385Z" transform="translate(-292.628 -238.667)" fill="#e94560"/>
      <path id="Tracé_8" data-name="Tracé 8" d="M222.8,226.82l-1.18.723-2.176,4.533h3.807Z" transform="translate(-179.129 -191.674)" fill="#e94560"/>
      <path id="Tracé_9" data-name="Tracé 9" d="M320.168,301.39l-3.718.815v2.719s2.176.815,2.176,1.542Z" transform="translate(-276.866 -260.08)" fill="#e94560"/>
      <path id="Tracé_10" data-name="Tracé 10" d="M210.877,262.81l-.907,3.9,3.264,1.536v-3.531Z" transform="translate(-172.378 -217.331)" fill="#e94560"/>
      <path id="Tracé_11" data-name="Tracé 11" d="M305.477,332.819,304.3,339.3s3.307-1.677,3.9-1.223l.319-3.445S306.338,332.311,305.477,332.819Z" transform="translate(-268.204 -282.434)" fill="#e94560"/>
      <path id="Tracé_12" data-name="Tracé 12" d="M303.179,355.256l.319,2.13,3.807,1.131v-3.9l-.953-1.131S303.039,354.3,303.179,355.256Z" transform="translate(-267.402 -297.222)" fill="#e94560"/>
      <path id="Tracé_13" data-name="Tracé 13" d="M301.3,371c.046.273,0,5.621,0,5.621h4.849l-.181-4.306Z" transform="translate(-266.065 -309.705)" fill="#e94560"/>
      <path id="Tracé_14" data-name="Tracé 14" d="M201.76,339.7l.54,6.526,4.536-2.765-.227-3.126Z" transform="translate(-166.525 -272.146)" fill="#e94560"/>
      <path id="Tracé_15" data-name="Tracé 15" d="M203.64,357.91l.322,4.487,5.529-.316-.769-7.071Z" transform="translate(-167.865 -283.061)" fill="#e94560"/>
      <path id="Tracé_16" data-name="Tracé 16" d="M204.76,383.478l.907,4.217,5.483-.953-.861-3.942Z" transform="translate(-168.664 -302.873)" fill="#e94560"/>
      <path id="Tracé_17" data-name="Tracé 17" d="M207.13,403.185l.884,3.31,6.095.9-1-5.03Z" transform="translate(-170.353 -316.824)" fill="#e94560"/>
      <path id="Tracé_18" data-name="Tracé 18" d="M310.14,474.122l2.492,8.432s2.946-5.3,4.987-4.987l-1-3.172S310.637,473.441,310.14,474.122Z" transform="translate(-272.367 -383.047)" fill="#e94560"/>
      <path id="Tracé_19" data-name="Tracé 19" d="M320.08,494.377l1.86,4.941s5.937-2.222,6.8-1.634L325.021,489S321.576,494.2,320.08,494.377Z" transform="translate(-279.453 -393.828)" fill="#e94560"/>
      <path id="Tracé_20" data-name="Tracé 20" d="M229.86,471.031l2.676,5.349,5.664-3.537-2.357-3.853Z" transform="translate(-186.558 -364.318)" fill="#e94560"/>
      <path id="Tracé_21" data-name="Tracé 21" d="M241.7,489.036l2.222,3.491h9.02l-5.621-7.117Z" transform="translate(-194.999 -376.024)" fill="#e94560"/>
      <path id="Tracé_22" data-name="Tracé 22" d="M250.7,514.3l6.345,8.659,6.391-5.44-3.126-3.218Z" transform="translate(-201.415 -396.62)" fill="#e94560"/>
      <path id="Tracé_23" data-name="Tracé 23" d="M281.807,529.38l-6.167,4.872,8.3,3.172,2.946-3.715Z" transform="translate(-219.195 -407.371)" fill="#e94560"/>
      <path id="Tracé_24" data-name="Tracé 24" d="M523.14,345.091s7.829,1.817,9.994,6.29l2.377-.838v2.937l4.961-1.329s-3.353,1.817-1.467,4.194,7.548,6.638,7.548,6.638,3.844-3.563-1.326-10.482S528.942,340.618,523.14,345.091Z" transform="translate(-424.216 -290.017)" fill="#e94560"/>
      <path id="Tracé_25" data-name="Tracé 25" d="M525.09,318.389s13.493-19.077,32.189-3.494c0,0-5.842.287-7.378,1.329,0,0-.069-3.985-1.4-2.937l-.758,3.075-4.332.632s-1.008-3.566-2.216-2.937l-1.628,3.075-3.494.21s-.7-3.213-1.467-2.725-1.4,2.446-1.4,2.446S527.048,316.712,525.09,318.389Z" transform="translate(-425.607 -265.342)" fill="#e94560"/>
      <path id="Tracé_26" data-name="Tracé 26" d="M514.75,285.234l3.213-7.829s-.138-2.724-1.048-2.871l1.748.7,1.467-1.677-1.048-2.724s2.1,2.027,2.8,2.027,5.03-2.727,5.03-2.727l-2.165-2.584s2.793,3,4.961,2.027,9.784-4.4,7.407-5.1-7.129-4.335-14.676-.419S509.02,277.979,514.75,285.234Z" transform="translate(-416.593 -232.187)" fill="#e94560"/>
      <path id="Tracé_27" data-name="Tracé 27" d="M451.895,294.471l-5.311-9.618-1.958.534.35-2.937-4.123-2.793-.9,1.467v-3.075l-4.691-1.743-1.189,1.257s.7-2.725-2.871-2.3-4.961-.043-4.961-.043,3.353,4.794,5.38,6.508l2.656-.861-1.148,2.515,4.921,2.871s2.934-1.9,3.075-1.372l-1.171,2.4S452.173,293.144,451.895,294.471Z" transform="translate(-355.136 -241.424)" fill="#e94560"/>
      <path id="Tracé_28" data-name="Tracé 28" d="M430.21,325.615s-2.871-5.239-7.269-4.82l-1.329,1.677s1.189-2.8-3.563-3.775a108.5,108.5,0,0,0-11.6-1.456l-1.258,2.377-1.467-2.377-5.242,2.377s1.189,4.18,9.575,4.809l1.326-2.027.21,2.027,4.754,1.539s1.189-2.515,1.677-2.168.287,2.168.287,2.168A28.056,28.056,0,0,0,430.21,325.615Z" transform="translate(-335.345 -271.379)" fill="#e94560"/>
      <path id="Tracé_29" data-name="Tracé 29" d="M485.035,350.053s-1.117,7.605-2.656,8.512a16.308,16.308,0,0,1-4.332,1.4l4.542.56-2.3,3.635-4.263,1.955,3.215.629.21,1.889-1.817.838,2.1.907s1.4,5.242,3.425,7.751c0,0-5.38-1.326-7.129-4.192a26.184,26.184,0,0,1-2.584-7.338s-.287-6.572.91-8.326S483.709,349.579,485.035,350.053Z" transform="translate(-388.767 -294.755)" fill="#e94560"/>
      <path id="Tracé_30" data-name="Tracé 30" d="M419.577,303.54l.91.557,1.677,3.494H419.23Z" transform="translate(-321.561 -246.368)" fill="#e94560"/>
      <path id="Tracé_31" data-name="Tracé 31" d="M521,373.19l2.871.629v2.1s-1.677.629-1.677,1.189Z" transform="translate(-422.691 -311.266)" fill="#e94560"/>
      <path id="Tracé_32" data-name="Tracé 32" d="M429.807,331.29l.7,3-2.515,1.186v-2.722Z" transform="translate(-327.806 -266.151)" fill="#e94560"/>
      <path id="Tracé_33" data-name="Tracé 33" d="M531.337,397.395l.91,5s-2.552-1.295-3.006-.945L529,398.793S530.674,397.01,531.337,397.395Z" transform="translate(-428.394 -328.484)" fill="#e94560"/>
      <path id="Tracé_34" data-name="Tracé 34" d="M533.261,414.749l-.244,1.642-2.937.876v-3.006l.735-.861S533.37,414.012,533.261,414.749Z" transform="translate(-429.164 -339.932)" fill="#e94560"/>
      <path id="Tracé_35" data-name="Tracé 35" d="M533.352,426.87c-.034.21,0,4.332,0,4.332H529.62l.138-3.319Z" transform="translate(-428.836 -349.535)" fill="#e94560"/>
      <path id="Tracé_36" data-name="Tracé 36" d="M433.363,390.56l-.416,5.033-3.5-2.133.175-2.412Z" transform="translate(-328.847 -308.405)" fill="#e94560"/>
      <path id="Tracé_37" data-name="Tracé 37" d="M430.43,404.606l-.247,3.459-4.263-.244.594-5.452Z" transform="translate(-326.33 -316.824)" fill="#e94560"/>
      <path id="Tracé_38" data-name="Tracé 38" d="M428.537,424.315l-.7,3.247-4.226-.732.663-3.04Z" transform="translate(-324.683 -332.095)" fill="#e94560"/>
      <path id="Tracé_39" data-name="Tracé 39" d="M425.58,439.509l-.68,2.552-4.7.7.769-3.879Z" transform="translate(-322.252 -342.853)" fill="#e94560"/>
      <path id="Tracé_40" data-name="Tracé 40" d="M521.485,506.36l-1.921,6.5s-2.271-4.088-3.844-3.844l.769-2.446S521.1,505.835,521.485,506.36Z" transform="translate(-418.927 -406.069)" fill="#e94560"/>
      <path id="Tracé_41" data-name="Tracé 41" d="M511.555,521.969l-1.435,3.81s-4.576-1.722-5.24-1.257l2.871-6.7S510.4,521.828,511.555,521.969Z" transform="translate(-411.199 -414.374)" fill="#e94560"/>
      <path id="Tracé_42" data-name="Tracé 42" d="M405.451,491.82l-2.061,4.123-4.37-2.724,1.817-2.969Z" transform="translate(-307.153 -379.475)" fill="#e94560"/>
      <path id="Tracé_43" data-name="Tracé 43" d="M390.767,505.7l-1.714,2.69H382.1l4.335-5.486Z" transform="translate(-295.091 -388.493)" fill="#e94560"/>
      <path id="Tracé_44" data-name="Tracé 44" d="M380.969,525.18l-4.892,6.672-4.927-4.192,2.412-2.481Z" transform="translate(-287.284 -404.376)" fill="#e94560"/>
      <path id="Tracé_45" data-name="Tracé 45" d="M359.853,536.8l4.751,3.755L358.211,543l-2.271-2.865Z" transform="translate(-276.441 -412.66)" fill="#e94560"/>
      <path id="Tracé_46" data-name="Tracé 46" d="M293.56,602.575s18.885-8.039,34.325-6.316a31.71,31.71,0,0,0,3.172.2c6.316.066,28.626.689,38.918,6.109Z" transform="translate(-260.547 -470.121)" fill="#e94560"/>
    </g>
    <g id="Groupe_2" data-name="Groupe 2" transform="translate(183.467 15.174)" opacity="0.1">
      <path id="Tracé_47" data-name="Tracé 47" d="M904,163.148s5.409,1.257,6.907,4.349l1.642-.574v2.027l3.428-.916s-2.317,1.255-1.013,2.9a41.321,41.321,0,0,0,5.216,4.593s2.656-2.463-.919-7.243S908.019,160.059,904,163.148Z" transform="translate(-856.489 -145.892)" fill="#e94560"/>
      <path id="Tracé_48" data-name="Tracé 48" d="M905.38,144.691s9.331-13.186,22.244-2.417c0,0-4.037.2-5.1.919,0,0-.049-2.753-.968-2.027l-.531,2.124-2.995.434s-.695-2.463-1.53-2.027l-1.125,2.124-2.414.144s-.482-2.222-1.016-1.883-.965,1.691-.965,1.691S906.732,143.531,905.38,144.691Z" transform="translate(-857.473 -128.833)" fill="#e94560"/>
      <path id="Tracé_49" data-name="Tracé 49" d="M898.225,121.822l2.222-5.412s-.1-1.883-.726-1.978l1.209.482,1.013-1.148-.723-1.883s1.435,1.4,1.932,1.4a21.922,21.922,0,0,0,3.477-1.883l-1.5-1.789s1.932,2.079,3.428,1.4,6.761-3.043,5.119-3.525-4.927-2.994-10.143-.287S894.263,116.8,898.225,121.822Z" transform="translate(-851.237 -105.964)" fill="#e94560"/>
      <path id="Tracé_50" data-name="Tracé 50" d="M854.781,128.1l-3.678-6.661-1.352.37.241-2.03-2.851-1.932-.626,1.013v-2.124l-3.236-1.206-.821.861s.482-1.883-1.981-1.593a9.062,9.062,0,0,1-3.428-.029,33.01,33.01,0,0,0,3.718,4.5l1.834-.6-.792,1.74,3.4,1.978s2.027-1.315,2.125-.947l-.821,1.679S854.976,127.177,854.781,128.1Z" transform="translate(-808.76 -112.238)" fill="#e94560"/>
      <path id="Tracé_51" data-name="Tracé 51" d="M839.847,149.652s-1.978-3.623-5.021-3.333l-.919,1.148s.821-1.932-2.463-2.61a74.935,74.935,0,0,0-8.016-1.008l-.861,1.645-1.016-1.645-3.62,1.645s.821,2.888,6.6,3.325l.919-1.4.146,1.4,3.281,1.062s.821-1.74,1.148-1.5.2,1.5.2,1.5A19.511,19.511,0,0,0,839.847,149.652Z" transform="translate(-795.129 -132.973)" fill="#e94560"/>
      <path id="Tracé_52" data-name="Tracé 52" d="M877.651,166.57s-.772,5.257-1.837,5.883a11.353,11.353,0,0,1-2.994.967l3.141.385-1.593,2.512-2.946,1.352,2.219.436.146,1.3-1.255.574,1.435.626a18.417,18.417,0,0,0,2.369,5.363s-3.732-.919-4.927-2.9a18.669,18.669,0,0,1-1.789-5.07s-.192-4.539.629-5.742S876.733,166.243,877.651,166.57Z" transform="translate(-831.966 -149.159)" fill="#e94560"/>
      <path id="Tracé_53" data-name="Tracé 53" d="M801.711,118.02l.626.388,1.16,2.414H801.47Z" transform="translate(-754.817 -99.314)" fill="#e94560"/>
      <path id="Tracé_54" data-name="Tracé 54" d="M902.52,182.56l1.978.434v1.45s-1.148.436-1.148.821Z" transform="translate(-855.434 -160.57)" fill="#e94560"/>
      <path id="Tracé_55" data-name="Tracé 55" d="M808.778,137.2l.482,2.076-1.74.818v-1.88Z" transform="translate(-759.13 -112.988)" fill="#e94560"/>
      <path id="Tracé_56" data-name="Tracé 56" d="M909.686,199.287l.629,3.445s-1.763-.893-2.076-.652l-.169-1.835S909.227,199.023,909.686,199.287Z" transform="translate(-859.39 -172.468)" fill="#e94560"/>
      <path id="Tracé_57" data-name="Tracé 57" d="M911.019,211.3l-.169,1.148-2.03.606v-2.079l.508-.6S911.094,210.786,911.019,211.3Z" transform="translate(-859.925 -180.396)" fill="#e94560"/>
      <path id="Tracé_58" data-name="Tracé 58" d="M911.074,219.66c-.026.144,0,2.994,0,2.994H908.49l.095-2.3Z" transform="translate(-859.69 -187.019)" fill="#e94560"/>
      <path id="Tracé_59" data-name="Tracé 59" d="M811.234,178.16l-.287,3.477-2.417-1.473.121-1.665Z" transform="translate(-759.851 -142.188)" fill="#e94560"/>
      <path id="Tracé_60" data-name="Tracé 60" d="M809.208,187.865l-.172,2.391-2.945-.169.411-3.767Z" transform="translate(-758.111 -148.006)" fill="#e94560"/>
      <path id="Tracé_61" data-name="Tracé 61" d="M807.895,201.492l-.482,2.245-2.923-.508.459-2.1Z" transform="translate(-756.97 -158.564)" fill="#e94560"/>
      <path id="Tracé_62" data-name="Tracé 62" d="M805.858,211.994l-.471,1.763-3.247.482.531-2.679Z" transform="translate(-755.295 -165.999)" fill="#e94560"/>
      <path id="Tracé_63" data-name="Tracé 63" d="M902.885,274.6l-1.329,4.49s-1.57-2.825-2.656-2.656l.531-1.691S902.618,274.234,902.885,274.6Z" transform="translate(-852.853 -226.09)" fill="#e94560"/>
      <path id="Tracé_64" data-name="Tracé 64" d="M896,285.4l-1,2.633s-3.158-1.183-3.623-.861l1.981-4.631S895.2,285.3,896,285.4Z" transform="translate(-847.492 -231.846)" fill="#e94560"/>
      <path id="Tracé_65" data-name="Tracé 65" d="M791.944,248.138l-1.424,2.848L787.5,249.1l1.257-2.053Z" transform="translate(-744.858 -191.3)" fill="#e94560"/>
      <path id="Tracé_66" data-name="Tracé 66" d="M781.8,257.732l-1.183,1.857H775.81l2.994-3.79Z" transform="translate(-736.524 -197.538)" fill="#e94560"/>
      <path id="Tracé_67" data-name="Tracé 67" d="M775.027,271.19l-3.382,4.614-3.4-2.9,1.665-1.714Z" transform="translate(-731.127 -208.51)" fill="#e94560"/>
      <path id="Tracé_68" data-name="Tracé 68" d="M760.434,279.23l3.284,2.6-4.421,1.691-1.567-1.981Z" transform="translate(-723.635 -214.242)" fill="#e94560"/>
      <path id="Tracé_69" data-name="Tracé 69" d="M766.5,205.85s-4.171.967-5.326,3.35l-1.266-.448v1.565l-2.644-.706s1.789.967.784,2.234a31.741,31.741,0,0,1-4.019,3.537s-2.047-1.9.706-5.587S763.412,203.467,766.5,205.85Z" transform="translate(-749.055 -176.525)" fill="#e94560"/>
      <path id="Tracé_70" data-name="Tracé 70" d="M755.661,191.619s-7.195-10.163-17.151-1.86c0,0,3.112.149,3.933.706,0,0,.037-2.122.744-1.562l.41,1.636,2.3.336s.537-1.9,1.18-1.565l.861,1.639,1.863.112s.373-1.723.781-1.453a3.306,3.306,0,0,1,.746,1.3S754.619,190.726,755.661,191.619Z" transform="translate(-738.51 -163.375)" fill="#e94560"/>
      <path id="Tracé_71" data-name="Tracé 71" d="M770.491,173.975l-1.723-4.169s.075-1.453.557-1.527l-.93.373-.781-.893.557-1.453s-1.117,1.079-1.487,1.079A17.493,17.493,0,0,1,764,165.933l1.148-1.378s-1.49,1.6-2.644,1.079-5.214-2.346-3.948-2.719,3.8-2.3,7.82-.221S773.543,170.1,770.491,173.975Z" transform="translate(-752.631 -145.732)" fill="#e94560"/>
      <path id="Tracé_72" data-name="Tracé 72" d="M803.3,178.867l2.831-5.125,1.042.287-.187-1.562,2.2-1.49.485.781v-1.636l2.495-.933.631.672s-.37-1.453,1.527-1.229a6.974,6.974,0,0,0,2.644-.023,25.312,25.312,0,0,1-2.871,3.465l-1.41-.468.611,1.341-2.621,1.516s-1.565-1.013-1.639-.732l.634,1.3S803.154,178.16,803.3,178.867Z" transform="translate(-784.7 -150.623)" fill="#e94560"/>
      <path id="Tracé_73" data-name="Tracé 73" d="M806.81,195.436s1.527-2.793,3.873-2.584l.706.893s-.632-1.487,1.9-2.01a57.533,57.533,0,0,1,6.181-.775l.669,1.266.792-1.255,2.791,1.266s-.632,2.228-5.1,2.561l-.709-1.079L817.8,194.8l-2.532.821s-.631-1.341-.893-1.148-.149,1.148-.149,1.148A15.071,15.071,0,0,1,806.81,195.436Z" transform="translate(-787.201 -166.558)" fill="#e94560"/>
      <path id="Tracé_74" data-name="Tracé 74" d="M804.22,208.489s.594,4.051,1.415,4.536a8.576,8.576,0,0,0,2.3.744l-2.42.287,1.229,1.935,2.271,1.045-1.723.333-.112,1,.97.448-1.12.485a14.166,14.166,0,0,1-1.823,4.131s2.871-.706,3.8-2.234a14.135,14.135,0,0,0,1.378-3.91s.149-3.5-.485-4.43S804.926,208.237,804.22,208.489Z" transform="translate(-785.355 -179.046)" fill="#e94560"/>
      <path id="Tracé_75" data-name="Tracé 75" d="M698.018,158.9l-.485.3-.893,1.863H698.2Z" transform="translate(-680.083 -128.458)" fill="#e94560"/>
      <path id="Tracé_76" data-name="Tracé 76" d="M796.667,220.82l-1.527.339v1.117s.893.336.893.634Z" transform="translate(-778.882 -187.846)" fill="#e94560"/>
      <path id="Tracé_77" data-name="Tracé 77" d="M693.123,173.68l-.373,1.6,1.341.632v-1.45Z" transform="translate(-677.31 -138.994)" fill="#e94560"/>
      <path id="Tracé_78" data-name="Tracé 78" d="M790.625,233.717l-.485,2.661s1.361-.689,1.6-.5l.132-1.415S790.978,233.51,790.625,233.717Z" transform="translate(-775.317 -197.019)" fill="#e94560"/>
      <path id="Tracé_79" data-name="Tracé 79" d="M789.686,242.918l.129.861,1.565.465v-1.6l-.39-.465S789.628,242.525,789.686,242.918Z" transform="translate(-774.992 -203.073)" fill="#e94560"/>
      <path id="Tracé_80" data-name="Tracé 80" d="M788.91,249.41c.02.112,0,2.3,0,2.3H790.9l-.075-1.768Z" transform="translate(-774.441 -208.228)" fill="#e94560"/>
      <path id="Tracé_81" data-name="Tracé 81" d="M689.38,205.26l.221,2.681,1.863-1.134-.092-1.286Z" transform="translate(-674.908 -161.508)" fill="#e94560"/>
      <path id="Tracé_82" data-name="Tracé 82" d="M690.15,212.741l.132,1.843,2.271-.129-.316-2.905Z" transform="translate(-675.457 -165.992)" fill="#e94560"/>
      <path id="Tracé_83" data-name="Tracé 83" d="M690.61,223.248l.373,1.731,2.251-.39-.353-1.619Z" transform="translate(-675.784 -174.134)" fill="#e94560"/>
      <path id="Tracé_84" data-name="Tracé 84" d="M691.58,231.346l.365,1.358,2.5.373-.411-2.067Z" transform="translate(-676.476 -179.865)" fill="#e94560"/>
      <path id="Tracé_85" data-name="Tracé 85" d="M792.54,291.757l1.025,3.462s1.212-2.176,2.047-2.047l-.408-1.3S792.747,291.485,792.54,291.757Z" transform="translate(-777.028 -238.348)" fill="#e94560"/>
      <path id="Tracé_86" data-name="Tracé 86" d="M796.63,300.088l.764,2.03s2.437-.91,2.793-.669l-1.527-3.569S797.244,300.016,796.63,300.088Z" transform="translate(-779.944 -242.782)" fill="#e94560"/>
      <path id="Tracé_87" data-name="Tracé 87" d="M700.92,259.215l1.1,2.2,2.325-1.45-.967-1.582Z" transform="translate(-683.135 -199.378)" fill="#e94560"/>
      <path id="Tracé_88" data-name="Tracé 88" d="M705.78,266.61l.913,1.433H710.4l-2.308-2.923Z" transform="translate(-686.599 -204.183)" fill="#e94560"/>
      <path id="Tracé_89" data-name="Tracé 89" d="M709.48,276.99l2.607,3.554,2.624-2.234-1.283-1.321Z" transform="translate(-689.237 -212.645)" fill="#e94560"/>
      <path id="Tracé_90" data-name="Tracé 90" d="M722.259,283.18l-2.529,2,3.4,1.3,1.212-1.527Z" transform="translate(-696.544 -217.058)" fill="#e94560"/>
      <path id="Tracé_91" data-name="Tracé 91" d="M820.505,343.034s-10.063-4.283-18.288-3.365a16.639,16.639,0,0,1-1.691.109c-3.362.034-15.253.368-20.737,3.256Z" transform="translate(-767.939 -272.482)" fill="#e94560"/>
    </g>
    <path id="Tracé_92" data-name="Tracé 92" d="M694.256,742.673,702.2,744.3c1.025.209,2.17.491,2.618,1.183.574.9-.336,1.892-.939,2.785a5.961,5.961,0,0,0,.365,6.83,18.213,18.213,0,0,0,6.5,5.245c1.177.635,2.558,1.484,2.239,2.512-.181.574-.876,1-1.568,1.329-5.257,2.512-12.184,2.337-18.342,1.315s-12.112-2.791-18.411-3.187c-2.891-.184-5.805-.072-8.687-.287a49.538,49.538,0,0,0-6-.382,37.5,37.5,0,0,0-5.782.956c-11.059,2.265-22.824,1.608-34.29.93-2.374-.141-5-.37-6.554-1.659-2.3-1.909-.844-4.906,1.344-6.89,1.148-1.036,2.547-2.1,2.555-3.428.017-2.544-4.861-3.7-5.926-6.132a3.579,3.579,0,0,1,.388-3.132,13.218,13.218,0,0,1,4.642-4.622,28.309,28.309,0,0,1,16.364-3.93c7.3.416,13.763,3.37,20.587,5.28,6.684,1.872,15.388,3.686,22.64,3.313C682.608,741.967,687.486,741.278,694.256,742.673Z" transform="translate(-464.214 -538.294)" fill="#e94560" opacity="0.1"/>
    <path id="Tracé_93" data-name="Tracé 93" d="M597.489,193.676s1.619,4.117,1.039,5.127c0,0,.287,3.035,4.215,5.128s8.36,7.08,8.36,7.08a5.326,5.326,0,0,0,3.5,2.417c.04.479.066.761.066.761l.207.086c-.046.169-.092.342-.138.52-.109.416-.215.861-.313,1.315-.649,2.963-1.042,6.632.273,8.7a8.026,8.026,0,0,1,.477.861c1.774,3.758.574,8.472.574,8.472s1.55,10.691,2.228,12.425a6.268,6.268,0,0,1-.261,3.833,4.208,4.208,0,0,0-.221,1.332v3.79s-.775,3.178-.39,4.045-.692,3.3-.692,3.3-2.521,10.5-1.453,12.23.968,5.57.968,5.57,2.036,15.024,2.813,15.6a9.178,9.178,0,0,1,1.648,1.929S619,301.6,619.831,303l.069.1c-.149.4-.494,1.329-.678,2.05-.063.238-.123.534-.178.861a11.5,11.5,0,0,0-.149,1.932l-.057.052a.64.64,0,0,0,.063.06,3.215,3.215,0,0,0,.126.844c.287.861,2.472.861,2.472.861a46.454,46.454,0,0,1,5.644,1.978,3.854,3.854,0,0,0,2.931.4c4,.919,9.135-.672,10.686-.985s2.159-2.3.241-2.7a3.891,3.891,0,0,1-.715-.215,5.837,5.837,0,0,1-2.383-1.924,49.09,49.09,0,0,0-4.083-3.494,11.773,11.773,0,0,1-2.558-2.584,2.69,2.69,0,0,0-1.435-.715,1.528,1.528,0,0,0,.123-.27,1.544,1.544,0,0,0-.445-1.665,1.576,1.576,0,0,0-.445-1.949l-.718-.554.164-.2a1.567,1.567,0,0,0,.146-1.843,6.651,6.651,0,0,1-.7-3.063c-.2-3.758-1.148-5.2-1.148-5.2l.574-17.145a24.448,24.448,0,0,1,0-2.791c.1-1.059,1.892-.362,2.182-.649s.336-1.662,1.114-2.05a2.087,2.087,0,0,0,.7-1.189,6.861,6.861,0,0,0,.2-3.342,1.973,1.973,0,0,1,.356-1.536c.861-1.148.574-5.1.574-5.1l1.341-8.257c2.127,7.008,4.838,15.446,5.742,16.06a2.763,2.763,0,0,1,1.355,2.5c-1.26,1.545-.772,8.188-.772,8.188s0,18.394.907,19.649a48.167,48.167,0,0,1,2.676,5.1s-5.168,4.568-1.148,6.89l.169,1.947a1.01,1.01,0,0,0-.066.086,3.8,3.8,0,0,0-.778,1.593l-.029.029.023.02c-.075.614.192,1.22,1.332,1.476,2.716.6,12.216.554,12.216.554l5.328.841s9.132.861,10.152-1.952-.8-2.647-.8-2.647h-.072l-3.81-.29a43.473,43.473,0,0,1-6.6-3.132,38.29,38.29,0,0,1-3.948-3.517,1.531,1.531,0,0,0-1,.187l-.164-.164-.264-.261,1-1.542c1-1.723-2.926-5.01-2.926-5.01s1.051-4.045.663-4.235-.663-3.859-.663-3.859.953-13.29.574-14.541a1.94,1.94,0,0,1,.459-1.659,4.111,4.111,0,0,0,.744-2.584,3.044,3.044,0,0,1,.637-2.213c1.163-1.255,0-6.646,0-6.646l-.967-7.129V235.158a17.917,17.917,0,0,0-1.174-6.373,18.21,18.21,0,0,1-.982-4.393c.2.066.324.095.324.095a1.285,1.285,0,0,1-.345-.287c-.017-.181-.037-.362-.055-.551a21.206,21.206,0,0,0-3.526-9.072,42.348,42.348,0,0,1,.034-6.17c1.527-2.6.075-6.356.075-6.356s-1.527-17.768-2.472-20.226-1.381-17.7.861-17.55,16.792-7.223,16.792-7.223-.365-.574,4.433-2.529,11.771-8.019,11.771-8.019l9.666-11.555a.258.258,0,0,1-.106,0l.2-.06a8.176,8.176,0,0,0,5.07-4.358c1.674-3.675-1.677-8.642-3.873-10.875l-.861-2.885-1.562-2.96-.945.181,1.269,4.516c-.56.456-.356,2.483-1.269,4.657a49.267,49.267,0,0,0-1.883,5.931c-.035.129-.069.256-.1.376-.06-.106-.092-.169-.092-.169l-5.087,4.045-4.8,3.9s-10.622,5.127-11.923,6.428-1.743.939-2.908,1.229-1.306,1.082-1.671,1.011-1.016,1.011-1.527.861-1.6.434-2.325.574-5.888,2.3-5.888,2.3c-3.2-1.588-11.848-.939-11.848-.939s-2.833-1.659-3.635,0a2.748,2.748,0,0,1-2.472,1.59l-3.445-1.467c0-.095.02-.189.029-.287v-.057c.029-.218.06-.422.1-.617a11.452,11.452,0,0,0,3.956-18.661l-.287-.287a4.881,4.881,0,0,0,.993-.617.534.534,0,0,0,.212-.267.318.318,0,0,0-.032-.23.7.7,0,0,0-.382-.422c-1.048-.574-2.208-.39-3.118-1.289a2.064,2.064,0,0,1-.474-.732,1.436,1.436,0,0,1,0-.916c.255-.68,1.074-1.148,1.028-1.872l-.037.014a.886.886,0,0,0,0-.123,6.408,6.408,0,0,1-2.716.459l.175-.764h.063c.029-.135.06-.27.092-.4l-.066.017.029-.126-2.558.683a.632.632,0,0,1-.574-.034.962.962,0,0,1-.2-.4,1.255,1.255,0,0,0-1.49-.554,5.989,5.989,0,0,0-1.516.835c-1.651,1.008-3.669,1.148-5.593,1.381s-3.968.66-5.314,2.044c-1.794,1.846-1.774,4.757-2.894,7.068a6.4,6.4,0,0,0-.514,1.168,4.6,4.6,0,0,0,.029,1.843A13.869,13.869,0,0,0,608,140.837c-.034-.043-.072-.08-.1-.123a6.446,6.446,0,0,0,.376.594c.68.956,1.636,1.737,2.366,2.647-.049-.086-.1-.169-.155-.256a5.194,5.194,0,0,1,.953,1.579c.25.712.3,1.522.6,2.193h0a2.28,2.28,0,0,0,.436.723,2.188,2.188,0,0,0,1.837.629,15.844,15.844,0,0,1-1.128,2.374l-.057.1a1.83,1.83,0,0,0-.574.063c-.844.161-3.732,2.641-3.732,2.641l-5.168,4.55c-7.777,6.066-6.029,15.529-6.029,15.529v4.84a20.112,20.112,0,0,0,0,10.258Zm15.627-42.3Zm-4.266,42.375s2.69-2.168,1.745-3.468a4.678,4.678,0,0,1-.454-2.3l3.505,7.786s2.107,3.4,1.019,4.912l-.017.029-4.2-4.881S610.3,193.754,608.85,193.754Z" transform="translate(-454.121 -96.383)" fill="url(#linear-gradient)"/>
    <path id="Tracé_94" data-name="Tracé 94" d="M901.42,146.553l2.3,4.45a8.985,8.985,0,0,0,2.133-.445,8.071,8.071,0,0,0,5.007-4.329c2.047-4.522-3.517-11.016-5.1-11.877s-.861,1.723-2.044,4.556a49.1,49.1,0,0,0-1.86,5.894C901.587,145.841,901.42,146.553,901.42,146.553Z" transform="translate(-671.183 -110.908)" fill="#cc818c"/>
    <path id="Tracé_95" data-name="Tracé 95" d="M647.79,222.465l3.66,5.455s17.3,8.254,14-1.435a21.726,21.726,0,0,1-1.367-9.557v-.057a7.662,7.662,0,0,1,1.358-3.879s-16.864-8.63-14.355-2.727a8.14,8.14,0,0,1,.6,3.884,13.264,13.264,0,0,1-1.817,5.389A17.771,17.771,0,0,1,647.79,222.465Z" transform="translate(-490.369 -163.674)" fill="#cc818c"/>
    <path id="Tracé_96" data-name="Tracé 96" d="M659.653,507.4s-2.489,10.43-1.435,12.153.956,5.549.956,5.549,2.01,14.929,2.776,15.5a9.2,9.2,0,0,1,1.628,1.915s-1.341,3.382-.534,4.769a1.149,1.149,0,0,0,.545.485c1.281.54,6.029-1.86,8.716-3.33a1.507,1.507,0,0,0,.718-.861,1.539,1.539,0,0,0-.439-1.654,1.57,1.57,0,0,0-.439-1.938l-.721-.534.164-.192a1.568,1.568,0,0,0,.144-1.832,6.681,6.681,0,0,1-.689-3.046c-.192-3.732-1.148-5.168-1.148-5.168l.574-17.036a24.16,24.16,0,0,1,0-2.773c.095-1.054,1.866-.359,2.153-.646s.333-1.651,1.1-2.036a2.158,2.158,0,0,0,.695-1.18,6.89,6.89,0,0,0,.2-3.322,1.961,1.961,0,0,1,.353-1.527c.861-1.148.574-5.07.574-5.07l1.341-8.205c2.1,6.962,4.777,15.348,5.664,15.957a2.756,2.756,0,0,1,1.338,2.486c-1.243,1.533-.764,8.136-.764,8.136s0,18.276.9,19.522a47.012,47.012,0,0,1,2.627,5.07s-5.13,4.562-1.1,6.864l.043.026c4.117,2.3,12.632-4.114,12.632-4.114l-.89-.887-.261-.261.99-1.53c.988-1.723-2.888-4.978-2.888-4.978s1.036-4.019.655-4.209-.655-3.83-.655-3.83.942-13.206.574-14.449a1.96,1.96,0,0,1,.454-1.648,4.1,4.1,0,0,0,.735-2.564,3.046,3.046,0,0,1,.629-2.2c1.148-1.246,0-6.6,0-6.6l-.956-7.083V479.877a17.938,17.938,0,0,0-1.148-6.333,19.088,19.088,0,0,1-1.065-5.1,21.329,21.329,0,0,0-3.574-9.161c-.695-1.062-1.212-1.7-1.212-1.7l-30.621-1.2s-.5,1.361-.985,3.259c-.106.413-.212.861-.31,1.306-.64,2.943-1.028,6.589.27,8.642a7.662,7.662,0,0,1,.471.861c1.751,3.732.554,8.418.554,8.418s1.53,10.622,2.2,12.345a6.259,6.259,0,0,1-.258,3.81,4.235,4.235,0,0,0-.218,1.324v3.767s-.767,3.158-.385,4.019S659.653,507.4,659.653,507.4Z" transform="translate(-497.003 -340.611)" fill="#aacaf5"/>
    <path id="Tracé_97" data-name="Tracé 97" d="M659.006,481.924a7.682,7.682,0,0,1,.471.861l1.723-.1c-.167-.887,1-9.213,1-9.213l-3.471-.2C658.1,476.226,657.708,479.872,659.006,481.924Z" transform="translate(-497.752 -352.652)" opacity="0.1"/>
    <path id="Tracé_98" data-name="Tracé 98" d="M658.006,480.924a7.675,7.675,0,0,1,.471.861l1.723-.1c-.167-.887,1-9.213,1-9.213l-3.471-.2C657.1,475.226,656.708,478.872,658.006,480.924Z" transform="translate(-497.039 -351.939)" fill="#aacaf5"/>
    <path id="Tracé_99" data-name="Tracé 99" d="M658.006,480.924a7.675,7.675,0,0,1,.471.861l1.723-.1c-.167-.887,1-9.213,1-9.213l-3.471-.2C657.1,475.226,656.708,478.872,658.006,480.924Z" transform="translate(-497.039 -351.939)" opacity="0.05"/>
    <path id="Tracé_100" data-name="Tracé 100" d="M677.81,763.716a1.148,1.148,0,0,0,.546.485c1.28.54,6.029-1.86,8.716-3.33a1.506,1.506,0,0,0,.718-.861c-1.536-.287-2.544,1.436-2.544,1.436a2.268,2.268,0,0,0-3.158.766c-1.318,1.938-4.137,1.12-4.137,1.12S677.893,763.492,677.81,763.716Z" transform="translate(-511.77 -557.041)" opacity="0.1"/>
    <path id="Tracé_101" data-name="Tracé 101" d="M674.7,770.347c.287.861,2.44.861,2.44.861a45.585,45.585,0,0,1,5.6,1.964,3.733,3.733,0,0,0,2.871.4c3.948.91,9.02-.669,10.551-.979s2.13-2.3.238-2.682a3.8,3.8,0,0,1-.706-.215,5.776,5.776,0,0,1-2.354-1.912,49.749,49.749,0,0,0-4.019-3.471,11.74,11.74,0,0,1-2.526-2.558c-2.248-1.987-3.85.741-3.85.741a2.268,2.268,0,0,0-3.158.766c-1.318,1.938-4.137,1.12-4.137,1.12s-.505,1.295-.743,2.228c-.06.235-.121.531-.175.861A7.8,7.8,0,0,0,674.7,770.347Z" transform="translate(-509.463 -557.795)" fill="#ff748f"/>
    <circle id="Ellipse_4" data-name="Ellipse 4" cx="0.264" cy="0.264" r="0.264" transform="translate(171.561 205.972)" fill="#575988"/>
    <circle id="Ellipse_5" data-name="Ellipse 5" cx="0.264" cy="0.264" r="0.264" transform="translate(173.809 208.079)" fill="#575988"/>
    <circle id="Ellipse_6" data-name="Ellipse 6" cx="0.264" cy="0.264" r="0.264" transform="translate(176.094 209.968)" fill="#575988"/>
    <circle id="Ellipse_7" data-name="Ellipse 7" cx="0.264" cy="0.264" r="0.264" transform="translate(174.911 209.124)" fill="#575988"/>
    <circle id="Ellipse_8" data-name="Ellipse 8" cx="0.264" cy="0.264" r="0.264" transform="translate(172.637 206.96)" fill="#575988"/>
    <path id="Tracé_102" data-name="Tracé 102" d="M674.694,786.341c.287.861,2.44.861,2.44.861a45.6,45.6,0,0,1,5.6,1.964,3.733,3.733,0,0,0,2.871.4c3.948.91,9.021-.669,10.551-.979s2.13-2.3.238-2.681a3.807,3.807,0,0,1-.706-.215,18.478,18.478,0,0,1-5.168.982c-3.9.167-6.985,0-6.985,0l-3.959-1.269a6.622,6.622,0,0,0-2.44-.884,6.317,6.317,0,0,1-2.423-1.054A8.026,8.026,0,0,0,674.694,786.341Z" transform="translate(-509.461 -573.789)" fill="#dce6f2"/>
    <path id="Tracé_103" data-name="Tracé 103" d="M684.4,793.214a3.246,3.246,0,0,0,.652-.066l-.057-.287a4.135,4.135,0,0,1-2.363-.327c-.353-.141-.706-.3-1.045-.465-.4-.189-.821-.385-1.249-.543-.129-.049-.261-.092-.39-.135-.213-.072-.434-.146-.64-.235-.121-.049-.235-.106-.353-.161a4.148,4.148,0,0,0-.884-.339,4.71,4.71,0,0,0-.482-.06,4.114,4.114,0,0,1-.436-.055,4,4,0,0,1-.83-.31,4.1,4.1,0,0,0-.893-.327l-.213-.037a1.028,1.028,0,0,1-.617-.227l-.21.2a1.278,1.278,0,0,0,.781.316.952.952,0,0,1,.2.034,3.782,3.782,0,0,1,.83.307,4.306,4.306,0,0,0,.893.33,3.792,3.792,0,0,0,.468.057,4.22,4.22,0,0,1,.448.057,3.7,3.7,0,0,1,.821.316c.121.057.241.115.365.167.215.092.442.169.66.241.129.043.256.086.385.135.413.152.827.345,1.223.531.344.164.7.33,1.062.474A5.139,5.139,0,0,0,684.4,793.214Z" transform="translate(-509.332 -578.187)" fill="#575988" opacity="0.5"/>
    <path id="Tracé_104" data-name="Tracé 104" d="M680.571,628.45a7.026,7.026,0,0,0-5.383-2.845,19.724,19.724,0,0,1-4.858-.385,12.248,12.248,0,0,0,3.686,1.461A65.242,65.242,0,0,1,680.571,628.45Z" transform="translate(-506.438 -460.971)" opacity="0.1"/>
    <path id="Tracé_105" data-name="Tracé 105" d="M690.237,635.245a7.958,7.958,0,0,0-2.822-1.292c-1.028-.046-1.915-.143-1.915-.143a5.526,5.526,0,0,0,1.579.764C687.94,634.815,690.237,635.245,690.237,635.245Z" transform="translate(-517.252 -467.095)" opacity="0.1"/>
    <path id="Tracé_106" data-name="Tracé 106" d="M693.937,641.81s-2.7.215-2.727.933" transform="translate(-521.323 -472.798)" opacity="0.1"/>
    <path id="Tracé_107" data-name="Tracé 107" d="M777.186,488.7c-.141.023-2.555-2.512-2.725-3.517a2.452,2.452,0,0,0-1.051-1.545s-1.556.623-.169,2.529A7.712,7.712,0,0,0,777.186,488.7Z" transform="translate(-579.394 -360.038)" opacity="0.1"/>
    <path id="Tracé_108" data-name="Tracé 108" d="M658.658,210.263c.551,1.3,1.036,1.4.933,2.664a9.456,9.456,0,0,0,2.19,1.723c1.723,1.016,3.571,3.006,5.7,3.006a11.365,11.365,0,0,0,4.169-.787,7.662,7.662,0,0,1,1.358-3.879S656.149,204.361,658.658,210.263Z" transform="translate(-497.935 -163.674)" opacity="0.1"/>
    <path id="Tracé_109" data-name="Tracé 109" d="M650.29,171.052a11.415,11.415,0,1,0,11.4-11.412A11.415,11.415,0,0,0,650.29,171.052Z" transform="translate(-492.151 -129.056)" fill="#cc818c"/>
    <path id="Tracé_110" data-name="Tracé 110" d="M647.79,244.138l3.66,5.455s17.3,8.254,14-1.435a21.726,21.726,0,0,1-1.367-9.557h-.029a9.149,9.149,0,0,0-.344,2.2c-.052,1.49-.092,3.373-3.787,4a10.324,10.324,0,0,1-10.048-3.574A17.773,17.773,0,0,1,647.79,244.138Z" transform="translate(-490.369 -185.347)" opacity="0.1"/>
    <path id="Tracé_111" data-name="Tracé 111" d="M901.42,172.722l2.3,4.45a8.985,8.985,0,0,0,2.133-.445l.2-.238c-.933.359-4.091-5.6-4.091-5.6l-.1.08C901.587,172.01,901.42,172.722,901.42,172.722Z" transform="translate(-671.183 -137.076)" opacity="0.1"/>
    <path id="Tracé_112" data-name="Tracé 112" d="M660.28,459.648c7.384,3.207,32.935.474,32.935.474a3.288,3.288,0,0,1-.129-.835c-.695-1.062-1.212-1.7-1.212-1.7l-30.621-1.2S660.774,457.751,660.28,459.648Z" transform="translate(-499.273 -340.611)" opacity="0.1"/>
    <path id="Tracé_113" data-name="Tracé 113" d="M630.64,191.318l3.4,1.458a2.71,2.71,0,0,0,2.44-1.579c.79-1.651,3.589,0,3.589,0s8.53-.646,11.688.933c0,0,5.1-2.153,5.814-2.3s1.794-.718,2.3-.574,1.148-.933,1.507-.861.5-.718,1.651-1,1.579.072,2.871-1.22,11.771-6.388,11.771-6.388l4.737-3.876,5.024-4.019s3.158,5.957,4.091,5.6l-9.546,11.484s-6.89,6.029-11.627,7.967-4.378,2.512-4.378,2.512-14.355,7.321-16.58,7.177-1.794,15-.861,17.441,2.44,20.1,2.44,20.1,1.435,3.732-.072,6.316c0,0-.359,5.311,0,6.244,0,0-25.718,2.75-33.016-.5,0,0-1.077-11.914,0-13.422s-1-4.881-1-4.881l-4.594-10.264-11.2-11.268s-1.723-9.4,5.957-15.431l5.1-4.522s2.851-2.466,3.683-2.624.528,0,.528,0a10.283,10.283,0,0,0,10.143,3.7c3.695-.623,3.732-2.506,3.787-4A9.144,9.144,0,0,1,630.64,191.318Z" transform="translate(-456.958 -137.789)" fill="#dce6f2"/>
    <path id="Tracé_114" data-name="Tracé 114" d="M655.54,374.14s15.79.646,18.948,5.6c0,0-4.091-1.938-7.751-1.364S655.54,374.14,655.54,374.14Z" transform="translate(-495.894 -281.975)" opacity="0.1"/>
    <path id="Tracé_115" data-name="Tracé 115" d="M689.9,425.479s-7.464.5-9.043-1.077-1.585-2.512-1.585-2.512Z" transform="translate(-512.811 -316.016)" opacity="0.1"/>
    <path id="Tracé_116" data-name="Tracé 116" d="M646.9,321.14s6.316,7.464-1.364,10.694Z" transform="translate(-488.765 -244.19)" opacity="0.1"/>
    <path id="Tracé_117" data-name="Tracé 117" d="M771.985,270.89s-2.3,4.688-3.445,5Z" transform="translate(-576.452 -208.367)" opacity="0.1"/>
    <path id="Tracé_118" data-name="Tracé 118" d="M790.608,263.89s-5.742,5.168-6.818,5.67C783.79,269.56,789.747,263.89,790.608,263.89Z" transform="translate(-587.324 -203.377)" opacity="0.1"/>
    <path id="Tracé_119" data-name="Tracé 119" d="M727.79,246.64s5.527,8.254,1.938,13.278C729.728,259.918,731.738,253.961,727.79,246.64Z" transform="translate(-547.401 -191.079)" opacity="0.1"/>
    <path id="Tracé_120" data-name="Tracé 120" d="M679.27,452.991l1.688,1.59.235.221,1.958,1.849c.141.106.287.21.416.307,7.964,5.707,9.56-2.963,9.56-2.963s3.517,2.3,4.019.431-8.182-4.522-9.474-4.378a1.568,1.568,0,0,1-.347,0,5.518,5.518,0,0,1-1.783-.632l-.385-.207a15.062,15.062,0,0,1-1.289-.81Z" transform="translate(-512.811 -334.915)" fill="#cc818c"/>
    <path id="Tracé_121" data-name="Tracé 121" d="M649.269,171.048a11.412,11.412,0,0,0,5.575,9.81,6.812,6.812,0,0,0,.419-.83c.408-.956.657-1.975,1.071-2.928a9.092,9.092,0,0,1,1.918-2.8,1.237,1.237,0,0,1,.508-.35,1.4,1.4,0,0,1,1.048.287,4.737,4.737,0,0,0,1.591.7,1.7,1.7,0,0,0,1.6-.482,2.394,2.394,0,0,0,.253-1.992,23.948,23.948,0,0,1-.746-4.456,4.386,4.386,0,0,1,1.883-3.884c1.148-.66,2.584-.494,3.884-.847a4.661,4.661,0,0,0,.574-.2,11.415,11.415,0,0,0-19.583,7.97Z" transform="translate(-491.417 -129.052)" opacity="0.1"/>
    <path id="Tracé_122" data-name="Tracé 122" d="M657.113,150.3c.207.112.431.31.37.537a.545.545,0,0,1-.21.267,4.939,4.939,0,0,1-1.806.927c-1.286.35-2.727.184-3.884.844a4.383,4.383,0,0,0-1.883,3.884,24.734,24.734,0,0,0,.747,4.456,2.394,2.394,0,0,1-.253,1.992,1.7,1.7,0,0,1-1.6.482,4.737,4.737,0,0,1-1.591-.7,1.376,1.376,0,0,0-1.048-.287,1.237,1.237,0,0,0-.508.35,9.091,9.091,0,0,0-1.918,2.8c-.416.953-.663,1.972-1.071,2.928a4.748,4.748,0,0,1-1.918,2.386,2.4,2.4,0,0,1-2.871-.3c-.695-.769-.649-1.846-.979-2.785-.574-1.625-2.162-2.647-3.158-4.054a12.508,12.508,0,0,1-1.723-5.481,4.594,4.594,0,0,1-.029-1.832,6.583,6.583,0,0,1,.508-1.148c1.105-2.3,1.085-5.188,2.857-7.022,1.329-1.378,3.347-1.8,5.248-2.03s3.893-.373,5.524-1.375a6.413,6.413,0,0,1,1.5-.827,1.229,1.229,0,0,1,1.47.548.933.933,0,0,0,.2.4.612.612,0,0,0,.574.034l2.526-.68-.287,1.275a6.316,6.316,0,0,0,2.681-.456c.049.718-.761,1.183-1.013,1.857a1.723,1.723,0,0,0,.494,1.748C654.931,149.927,656.076,149.74,657.113,150.3Z" transform="translate(-478.903 -118.091)" fill="#ffdfcf"/>
    <path id="Tracé_123" data-name="Tracé 123" d="M755.87,753.137l.1,1.148.043.026c4.117,2.3,12.632-4.114,12.632-4.114l-.89-.887a1.562,1.562,0,0,0-.388,1.2l-1.74.095-2.081,2.248s-5.627.652-7.151.287Z" transform="translate(-567.419 -549.436)" opacity="0.1"/>
    <path id="Tracé_124" data-name="Tracé 124" d="M755.06,759.284c2.682.6,12.058.551,12.058.551l5.262.835s9.018.861,10.022-1.938-.79-2.63-.79-2.63h-.072l-3.755-.3a42.33,42.33,0,0,1-6.508-3.112,37.662,37.662,0,0,1-3.9-3.494s-1.568-.3-1.539,1.51l-1.74.095-2.081,2.248s-5.627.652-7.151.287h-.528l.241,2.776s-.026.029-.066.083C754.167,756.631,752.657,758.75,755.06,759.284Z" transform="translate(-565.892 -549.338)" fill="#ff748f"/>
    <circle id="Ellipse_9" data-name="Ellipse 9" cx="0.264" cy="0.264" r="0.264" transform="translate(198.619 202.714)" fill="#575988"/>
    <circle id="Ellipse_10" data-name="Ellipse 10" cx="0.264" cy="0.264" r="0.264" transform="translate(205.366 205.642)" fill="#575988"/>
    <circle id="Ellipse_11" data-name="Ellipse 11" cx="0.264" cy="0.264" r="0.264" transform="translate(208.84 206.696)" fill="#575988"/>
    <circle id="Ellipse_12" data-name="Ellipse 12" cx="0.264" cy="0.264" r="0.264" transform="translate(203.595 205.082)" fill="#575988"/>
    <circle id="Ellipse_13" data-name="Ellipse 13" cx="0.264" cy="0.264" r="0.264" transform="translate(207.109 206.167)" fill="#575988"/>
    <circle id="Ellipse_14" data-name="Ellipse 14" cx="0.264" cy="0.264" r="0.264" transform="translate(201.803 204.249)" fill="#575988"/>
    <circle id="Ellipse_15" data-name="Ellipse 15" cx="0.264" cy="0.264" r="0.264" transform="translate(200.035 203.483)" fill="#575988"/>
    <path id="Tracé_125" data-name="Tracé 125" d="M755.06,776.486c2.682.6,12.058.551,12.058.551l5.262.835s9.018.861,10.022-1.938-.79-2.63-.79-2.63h-.072a4.818,4.818,0,0,1-3.994,1.631l-6.485.264-6.721-.479s-6.293-.19-7.321-.4a15.014,15.014,0,0,1-2.506-.922C754.167,773.833,752.657,775.952,755.06,776.486Z" transform="translate(-565.892 -566.541)" fill="#dce6f2"/>
    <path id="Tracé_126" data-name="Tracé 126" d="M771.87,780.9a4.114,4.114,0,0,0,1.062-.132l-.075-.287a5.206,5.206,0,0,1-2.67-.121c-.319-.08-.632-.175-.947-.267a14.018,14.018,0,0,0-1.748-.442,14.509,14.509,0,0,0-2.908-.086h-.2a43.992,43.992,0,0,1-8.613-.382,3.222,3.222,0,0,1-1.843-.738l-.2.2a3.474,3.474,0,0,0,2.01.821,44.41,44.41,0,0,0,8.673.385h.2a14.1,14.1,0,0,1,2.848.083,14.449,14.449,0,0,1,1.723.431c.319.095.634.19.956.273A7.127,7.127,0,0,0,771.87,780.9Z" transform="translate(-565.887 -570.21)" fill="#575988" opacity="0.5"/>
    <path id="Tracé_127" data-name="Tracé 127" d="M679.27,452.984l1.688,1.591,4.2-5.374a15.1,15.1,0,0,1-1.289-.81Z" transform="translate(-512.811 -334.908)" opacity="0.1"/>
    <path id="Tracé_128" data-name="Tracé 128" d="M603.138,310.89l-3.3,4.594v4.809a20.114,20.114,0,0,0,0,10.192l-.167,4.45s1.6,4.091,1.028,5.1c0,0,.287,3.014,4.163,5.1s8.254,7.034,8.254,7.034,1.651,3.158,6.1,2.44l4.235,1.794,4.881-6.244-6.6-3.589s-2.3-3.086-3.66-2.943l-5.6-6.531s-.143-2.081-1.579-2.081c0,0,2.656-2.153,1.723-3.445s-.144-7.034-.144-7.034Z" transform="translate(-455.705 -236.883)" fill="#dce6f2"/>
    <path id="Tracé_129" data-name="Tracé 129" d="M613.3,383.495s-7.536-.141-8.469,1.794S611,382.418,613.3,383.495Z" transform="translate(-459.683 -288.53)" opacity="0.1"/>
    <path id="Tracé_130" data-name="Tracé 130" d="M685.87,456.935a2.345,2.345,0,0,0,.029.376,2.538,2.538,0,0,0,2.374,2.156h.135a2.526,2.526,0,0,0,2.394-3.359,4.355,4.355,0,0,0,1.229-3.557,5.517,5.517,0,0,1-1.783-.632A11.915,11.915,0,0,1,689,454.469a2.532,2.532,0,0,0-3.129,2.463Z" transform="translate(-517.516 -337.424)" opacity="0.1"/>
    <path id="Tracé_131" data-name="Tracé 131" d="M696.688,450s1.7.385,1.7.695.385,3.109-1.481,4.258-1.677-1.6-1.677-1.6S696.831,450.879,696.688,450Z" transform="translate(-524.183 -336.056)" fill="#575988"/>
    <circle id="Ellipse_16" data-name="Ellipse 16" cx="2.535" cy="2.535" r="2.535" transform="translate(168.07 116.976)" fill="#e4aab4"/>
    <circle id="Ellipse_17" data-name="Ellipse 17" cx="2.176" cy="2.176" r="2.176" transform="translate(168.429 117.335)" fill="#dce6f2"/>
    <path id="Tracé_132" data-name="Tracé 132" d="M697.707,472.81a12.547,12.547,0,0,1-12.247,1.625V476.6s4.594,3.158,8.756,1.246S697.707,472.81,697.707,472.81Z" transform="translate(-517.224 -352.317)" opacity="0.1"/>
    <path id="Tracé_133" data-name="Tracé 133" d="M697.707,470.81a12.547,12.547,0,0,1-12.247,1.625V474.6s4.594,3.158,8.756,1.246S697.707,470.81,697.707,470.81Z" transform="translate(-517.224 -350.891)" opacity="0.1"/>
    <path id="Tracé_134" data-name="Tracé 134" d="M697.707,470.81a12.547,12.547,0,0,1-12.247,1.625V474.6s4.594,3.158,8.756,1.246S697.707,470.81,697.707,470.81Z" transform="translate(-517.224 -350.891)" fill="#aacaf5"/>
    <path id="Tracé_135" data-name="Tracé 135" d="M697.707,471.81a12.547,12.547,0,0,1-12.247,1.625V475.6s4.594,3.158,8.756,1.246S697.707,471.81,697.707,471.81Z" transform="translate(-517.224 -351.604)" opacity="0.05"/>
    <path id="Tracé_136" data-name="Tracé 136" d="M765.348,749.22s-7.177,1.318-8.231,1.6.287.79.287.79S763.973,750.44,765.348,749.22Z" transform="translate(-568.021 -549.372)" opacity="0.1"/>
    <path id="Tracé_137" data-name="Tracé 137" d="M772.7,726.975c-.118,0-4.881-1.338-5.908-3.635" transform="translate(-575.205 -530.922)" opacity="0.1"/>
    <path id="Tracé_138" data-name="Tracé 138" d="M754.606,640.3s-1.929,2.535-3.175,2.463S753.472,640.215,754.606,640.3Z" transform="translate(-564.057 -471.723)" opacity="0.1"/>
    <path id="Tracé_139" data-name="Tracé 139" d="M754.47,655s-.815,1.794-2.01,1.22" transform="translate(-564.989 -482.202)" opacity="0.1"/>
    <path id="Tracé_140" data-name="Tracé 140" d="M730.663,517.672,725.578,531.1s-.718-8.639.8-11.222a4.484,4.484,0,0,1,4.286-2.2Z" transform="translate(-545.703 -384.286)" opacity="0.05"/>
    <g id="Groupe_3" data-name="Groupe 3" transform="translate(154.292 26.616)" opacity="0.1">
      <path id="Tracé_141" data-name="Tracé 141" d="M700.06,146.233l.046-.192.818-.221c-.032.135-.06.27-.092.4A5.771,5.771,0,0,1,700.06,146.233Z" transform="translate(-681.924 -145.82)"/>
      <path id="Tracé_142" data-name="Tracé 142" d="M706.283,151.492l-.086-.078a1.723,1.723,0,0,1-.494-1.748,2.461,2.461,0,0,1,.408-.649,6.192,6.192,0,0,0,1.18-.347c.049.718-.761,1.183-1.013,1.857A1.462,1.462,0,0,0,706.283,151.492Z" transform="translate(-685.899 -147.852)"/>
      <path id="Tracé_143" data-name="Tracé 143" d="M653.845,185.321a4.757,4.757,0,0,0,1.918-2.386c.4-.95.657-1.975,1.074-2.928a9.036,9.036,0,0,1,1.915-2.8,1.237,1.237,0,0,1,.508-.35,1.412,1.412,0,0,1,1.048.287,4.737,4.737,0,0,0,1.591.7,1.7,1.7,0,0,0,1.6-.482,2.394,2.394,0,0,0,.253-1.992,23.918,23.918,0,0,1-.746-4.456,4.386,4.386,0,0,1,1.883-3.884c1.148-.66,2.6-.494,3.887-.844a4.961,4.961,0,0,0,1.806-.927.953.953,0,0,0,.1-.089,3.426,3.426,0,0,1,.313.146c.207.112.431.31.373.537a.545.545,0,0,1-.21.267,4.96,4.96,0,0,1-1.806.927c-1.286.35-2.73.184-3.887.844a4.383,4.383,0,0,0-1.883,3.884,24.7,24.7,0,0,0,.746,4.456,2.394,2.394,0,0,1-.253,1.992,1.7,1.7,0,0,1-1.6.482,4.736,4.736,0,0,1-1.59-.7,1.388,1.388,0,0,0-1.048-.287,1.237,1.237,0,0,0-.508.35,9.033,9.033,0,0,0-1.915,2.8c-.416.953-.666,1.972-1.074,2.928a4.748,4.748,0,0,1-1.918,2.386,2.4,2.4,0,0,1-2.871-.3,2.3,2.3,0,0,1-.428-.721A2.442,2.442,0,0,0,653.845,185.321Z" transform="translate(-647.035 -159.615)"/>
      <path id="Tracé_144" data-name="Tracé 144" d="M639.6,214.684c-.721-.9-1.665-1.679-2.337-2.63a6.308,6.308,0,0,1-.37-.574A23.853,23.853,0,0,1,639.6,214.684Z" transform="translate(-636.89 -192.629)"/>
    </g>
    <path id="Tracé_145" data-name="Tracé 145" d="M918.315,155.325a3.449,3.449,0,0,0,.049.62c.175.68,1.068.936,1.347,1.579.095.218.112.459.2.68a.962.962,0,0,0,1.257.528.494.494,0,0,0,.287-.37.676.676,0,0,0-.138-.413l-.91-1.565c-.3-.52-.609-1.042-.861-1.588a10.021,10.021,0,0,1-.436-1.1,1.88,1.88,0,0,0-.273-.614.574.574,0,0,0-.589-.235C917.471,153.071,918.275,154.877,918.315,155.325Z" transform="translate(-682.939 -124.207)" opacity="0.1"/>
    <path id="Tracé_146" data-name="Tracé 146" d="M810.813,65.17l1.542,2.943,3.66,12.451-.68.253-2.191-3.77-3.264-11.7Z" transform="translate(-577.346 -46.463)" fill="#d8e2f0"/>
    <path id="Tracé_147" data-name="Tracé 147" d="M811.674,68.842l3.661,12.417-2.288-4.12L809.88,65.79Z" transform="translate(-577.346 -46.905)" fill="#575988"/>
    <ellipse id="Ellipse_18" data-name="Ellipse 18" cx="11.771" cy="1.616" rx="11.771" ry="1.616" transform="translate(120.53 194.821)" fill="#e94560" opacity="0.1"/>
    <ellipse id="Ellipse_19" data-name="Ellipse 19" cx="11.771" cy="1.616" rx="11.771" ry="1.616" transform="translate(75.442 199.392)" fill="#e94560" opacity="0.1"/>
    <ellipse id="Ellipse_20" data-name="Ellipse 20" cx="11.771" cy="1.616" rx="11.771" ry="1.616" transform="translate(22.336 193.205)" fill="#e94560" opacity="0.1"/>
    <ellipse id="Ellipse_21" data-name="Ellipse 21" cx="8.366" cy="1.148" rx="8.366" ry="1.148" transform="translate(96.894 212.88)" fill="#e94560" opacity="0.1"/>
    <ellipse id="Ellipse_22" data-name="Ellipse 22" cx="8.366" cy="1.148" rx="8.366" ry="1.148" transform="translate(50.097 211.728)" fill="#e94560" opacity="0.1"/>
    <path id="Tracé_148" data-name="Tracé 148" d="M277.91,530.065s16.508-54.117-2.584-75.793C261.046,438.057,244.834,440,237.574,442a13.413,13.413,0,0,0-8.659,7.195c-2.538,5.478-2.079,14.355,15.836,24.739,30,17.369,31.867,41.2,31.867,41.2Z" transform="translate(-190.953 -329.418)" fill="#e94560"/>
    <path id="Tracé_149" data-name="Tracé 149" d="M270.85,472s48.662,15.216,37.753,80.386" transform="translate(-221.645 -351.74)" fill="none"/>
    <path id="Tracé_150" data-name="Tracé 150" d="M357.469,491s-6.7,4.516-4.568,11.3" transform="translate(-279.842 -365.285)" fill="none"/>
    <path id="Tracé_151" data-name="Tracé 151" d="M287.85,498.647s4.1-4.166,9.084-1.866" transform="translate(-233.765 -368.912)" fill="none"/>
    <path id="Tracé_152" data-name="Tracé 152" d="M354.85,574.574s7.195-3.649,9.055.922" transform="translate(-281.53 -423.882)" fill="none"/>
    <path id="Tracé_153" data-name="Tracé 153" d="M403.2,604.433s-5.412-.431-5.5,2.153" transform="translate(-312.078 -446.133)" fill="none"/>
    <path id="Tracé_154" data-name="Tracé 154" d="M332.245,657.936S312.912,618.6,307.6,619.465c-2.524.411-3.686,2.891-4.212,5.386a15.819,15.819,0,0,0,1.054,9.575C307.184,640.719,314.554,652.671,332.245,657.936Z" transform="translate(-244.618 -456.859)" fill="#e94560"/>
    <path id="Tracé_155" data-name="Tracé 155" d="M319.34,645.5s20.286,29.427,24.213,30.719" transform="translate(-256.214 -475.429)" fill="none"/>
    <line id="Ligne_1" data-name="Ligne 1" x2="4.737" transform="translate(61.26 174.665)" fill="none"/>
    <line id="Ligne_2" data-name="Ligne 2" x2="7.424" y2="0.319" transform="translate(66.933 185.431)" fill="none"/>
    <line id="Ligne_3" data-name="Ligne 3" x1="0.807" y2="3.867" transform="translate(70.645 176.818)" fill="none"/>
    <line id="Ligne_4" data-name="Ligne 4" x1="0.144" y2="3.514" transform="translate(79.203 188.589)" fill="none"/>
    <path id="Tracé_156" data-name="Tracé 156" d="M402.68,657.936s19.333-39.332,24.644-38.47c2.524.411,3.686,2.891,4.212,5.386a15.818,15.818,0,0,1-1.054,9.575C427.749,640.719,420.371,652.671,402.68,657.936Z" transform="translate(-315.628 -456.859)" fill="#e94560"/>
    <path id="Tracé_157" data-name="Tracé 157" d="M427.873,645.5s-20.292,29.427-24.213,30.719" transform="translate(-316.327 -475.429)" fill="none"/>
    <line id="Ligne_5" data-name="Ligne 5" x1="4.737" transform="translate(108.685 174.665)" fill="none"/>
    <line id="Ligne_6" data-name="Ligne 6" x1="7.427" y2="0.319" transform="translate(100.321 185.431)" fill="none"/>
    <line id="Ligne_7" data-name="Ligne 7" x2="0.804" y2="3.867" transform="translate(103.23 176.818)" fill="none"/>
    <line id="Ligne_8" data-name="Ligne 8" x2="0.144" y2="3.514" transform="translate(95.335 188.589)" fill="none"/>
    <path id="Tracé_158" data-name="Tracé 158" d="M284.224,772.287a3.367,3.367,0,0,1-1.1-1.662,1.481,1.481,0,0,1,.769-1.691c.706-.27,1.461.221,2.033.715a2.715,2.715,0,0,0,1.978.953,3.006,3.006,0,0,1-.93-2.816,1.183,1.183,0,0,1,.258-.574c.393-.419,1.1-.241,1.573.089,1.493,1.051,1.909,3.081,1.918,4.9a9.219,9.219,0,0,0,.026-2.01,2.076,2.076,0,0,1,.758-1.789,2.3,2.3,0,0,1,1.148-.27,2.391,2.391,0,0,1,1.878.534,1.847,1.847,0,0,1-.075,2.3,7.386,7.386,0,0,1-1.941,1.556,4.307,4.307,0,0,0-1.39,1.324,1.387,1.387,0,0,0-.1.238h-4.2A11.7,11.7,0,0,1,284.224,772.287Z" transform="translate(-230.369 -562.023)" fill="#e94560"/>
    <path id="Tracé_159" data-name="Tracé 159" d="M540.838,717.11a3.334,3.334,0,0,1-1.1-1.659,1.481,1.481,0,0,1,.77-1.691,2.16,2.16,0,0,1,2.033.712,2.713,2.713,0,0,0,1.975.953,3.011,3.011,0,0,1-.93-2.816,1.183,1.183,0,0,1,.258-.574c.393-.419,1.105-.238,1.573.092,1.493,1.051,1.909,3.078,1.918,4.9a9.4,9.4,0,0,0,.029-2.01,2.07,2.07,0,0,1,.758-1.786,2.3,2.3,0,0,1,1.148-.273,2.4,2.4,0,0,1,1.875.534,1.85,1.85,0,0,1-.072,2.3,7.423,7.423,0,0,1-1.944,1.556,4.276,4.276,0,0,0-1.387,1.323,1.1,1.1,0,0,0-.1.235h-4.2a11.708,11.708,0,0,1-2.6-1.8Z" transform="translate(-413.312 -522.688)" fill="#e94560"/>
    <path id="Tracé_160" data-name="Tracé 160" d="M455.314,772.287a3.347,3.347,0,0,1-1.1-1.662,1.481,1.481,0,0,1,.769-1.691c.706-.27,1.461.221,2.033.715a2.714,2.714,0,0,0,1.978.953,3.006,3.006,0,0,1-.93-2.816,1.183,1.183,0,0,1,.258-.574c.393-.419,1.1-.241,1.573.089,1.493,1.051,1.909,3.081,1.915,4.9a9.043,9.043,0,0,0,.029-2.01,2.076,2.076,0,0,1,.758-1.789,2.3,2.3,0,0,1,1.148-.27,2.391,2.391,0,0,1,1.878.534,1.847,1.847,0,0,1-.075,2.3,7.387,7.387,0,0,1-1.941,1.556,4.307,4.307,0,0,0-1.39,1.324,1.385,1.385,0,0,0-.1.238h-4.2A11.7,11.7,0,0,1,455.314,772.287Z" transform="translate(-352.34 -562.023)" fill="#e94560"/>
    <path id="Tracé_161" data-name="Tracé 161" d="M206.792,674s-1.579,2.064.726,5.168,4.206,5.742,3.445,7.686c0,0-3.48-5.785-6.316-5.865S203.677,677.468,206.792,674Z" transform="translate(-173.452 -495.747)" fill="#e94560"/>
    <path id="Tracé_162" data-name="Tracé 162" d="M206.782,674a2.534,2.534,0,0,0-.322.649c-2.762,3.244-4.235,6.273-1.579,6.348,2.472.072,5.44,4.493,6.15,5.61a2.652,2.652,0,0,1-.083.255s-3.48-5.785-6.316-5.865S203.667,677.468,206.782,674Z" transform="translate(-173.442 -495.747)" opacity="0.1"/>
    <path id="Tracé_163" data-name="Tracé 163" d="M205.38,681.965c0,.726.08,1.315.181,1.315s.181-.589.181-1.315-.1-.385-.2-.385S205.38,681.239,205.38,681.965Z" transform="translate(-174.971 -501.094)" fill="#ffd037"/>
    <path id="Tracé_164" data-name="Tracé 164" d="M200.911,684.908c.637.347,1.194.557,1.24.468s-.428-.439-1.065-.787-.388-.095-.434,0S200.274,684.56,200.911,684.908Z" transform="translate(-171.51 -503.169)" fill="#ffd037"/>
    <path id="Tracé_165" data-name="Tracé 165" d="M233.821,674s1.576,2.064-.729,5.168-4.206,5.742-3.445,7.686c0,0,3.477-5.785,6.316-5.865S236.933,677.468,233.821,674Z" transform="translate(-192.15 -495.747)" fill="#e94560"/>
    <path id="Tracé_166" data-name="Tracé 166" d="M234.052,674a2.656,2.656,0,0,1,.322.649c2.762,3.244,4.232,6.273,1.579,6.348-2.475.072-5.44,4.493-6.152,5.61a2.663,2.663,0,0,0,.086.255s3.477-5.785,6.316-5.865S237.164,677.468,234.052,674Z" transform="translate(-192.381 -495.747)" opacity="0.1"/>
    <path id="Tracé_167" data-name="Tracé 167" d="M253.915,681.965c0,.726-.083,1.315-.184,1.315s-.181-.589-.181-1.315.1-.385.2-.385S253.915,681.239,253.915,681.965Z" transform="translate(-209.312 -501.094)" fill="#ffd037"/>
    <path id="Tracé_168" data-name="Tracé 168" d="M255.232,684.908c-.637.347-1.191.557-1.24.468s.431-.439,1.068-.787.385-.095.434,0S255.869,684.56,255.232,684.908Z" transform="translate(-209.624 -503.169)" fill="#ffd037"/>
    <path id="Tracé_170" data-name="Tracé 170" d="M197.735,723.223c4.978.04,11.57-.775,12.9-1.582,1.008-.614,1.412-2.822,1.547-3.841h.146s-.287,3.557-1.6,4.364-7.918,1.622-12.9,1.582c-1.435,0-1.932-.523-1.906-1.278C196.119,722.93,196.667,723.215,197.735,723.223Z" transform="translate(-168.225 -526.972)" opacity="0.2"/>
  </g>
</svg>
