<svg id="Groupe_6" data-name="Groupe 6" xmlns="http://www.w3.org/2000/svg" width="307" height="192.797" viewBox="0 0 307 192.797">
  <path id="Tracé_171" data-name="Tracé 171" d="M340.049,363.813c-3.08,7.408-9.525,14.1-16.443,20.435Q314.484,392.6,304.09,400.4q-2.88,2.164-5.853,4.273l-1.377.971q-1.831,1.3-3.724,2.567l-.151.1q-1.836,1.25-3.705,2.475a101.549,101.549,0,0,1-13.146,7.537c-1.623.752-3.3,1.452-5.03,2.08q-1.406.511-2.872.957c-1.6.487-3.245.911-4.963,1.26-.287.059-.576.116-.865.17-1.758.33-3.537.571-5.336.736a82.049,82.049,0,0,1-20-.871c-3.3-.517-6.548-1.182-9.69-1.939-.387-.092-.771-.187-1.158-.27-10.7-2.677-20.749-6.312-31.526-8.868q-5.571-1.323-11.359-2.245-2.823-.449-5.679-.811c-4.481-.557-9.019-.93-13.576-1.12a83.024,83.024,0,0,0-18.336.92q-1.168.214-2.307.481-1.444.338-2.834.771a50.46,50.46,0,0,0-7.272,2.994c-.462.227-.92.457-1.377.69h0c-1.433.73-2.848,1.477-4.284,2.2a54.074,54.074,0,0,1-8.043,3.413,42.591,42.591,0,0,1-4.619,1.179,68.07,68.07,0,0,1-12.938,1.176c-2.128,0-4.26-.046-6.366-.157h-.065c-.719-.038-1.441-.081-2.164-.135-3.289-.224-6.566-.571-9.8-1.044-11.064-1.623-21.557-4.69-30-9.368-11.464-6.35-18.745-15.819-17.652-25.279.784-6.815,5.655-13.144,10.277-19.34,8.6-11.537,16.651-23.337,20.889-35.775,3.437-10.1,4.462-20.77,12.373-29.844a41.469,41.469,0,0,1,9.547-7.878,60.96,60.96,0,0,1,8.838-4.468,76.393,76.393,0,0,1,10.653-3.475,84.79,84.79,0,0,1,9.552-1.8c1.747-.227,3.516-.4,5.3-.522q2.055-.143,4.13-.181h.214q1.268-.024,2.537,0a118.2,118.2,0,0,1,18.39,1.728c3.8.636,7.573,1.414,11.264,2.272q3.3.765,6.55,1.6c.66.17,1.32.343,1.972.519,15.394,4.124,28.938,9.82,43.769,14.493.076.024.149.049.224.068h0a91.368,91.368,0,0,0,9.26,2.326q3.444.69,7.032,1.206c3.656.541,7.391.968,11.153,1.336l.83.081c5.52.541,11.088.944,16.5,1.414,1.92.168,3.824.341,5.7.541q1.785.178,3.537.379c.838.1,1.679.195,2.521.3s1.731.211,2.6.322c.563.07,1.122.143,1.685.222,3.408.452,6.807.957,10.169,1.536,2.045.352,4.078.73,6.088,1.139q2.183.443,4.327.936,1.59.36,3.153.757a97.45,97.45,0,0,1,23.221,8.687C338.007,333.59,345.942,349.647,340.049,363.813Z" transform="translate(-34.974 -231.004)" fill="#e94560" opacity="0.1"/>
  <circle id="Ellipse_23" data-name="Ellipse 23" cx="5.85" cy="5.85" r="5.85" transform="translate(61.489 12.749)" fill="#e94560" opacity="0.1"/>
  <circle id="Ellipse_24" data-name="Ellipse 24" cx="5.85" cy="5.85" r="5.85" transform="translate(181.056 0)" fill="#e94560" opacity="0.1"/>
  <circle id="Ellipse_25" data-name="Ellipse 25" cx="5.85" cy="5.85" r="5.85" transform="translate(251.954 13.1)" fill="#ff748f" opacity="0.1"/>
  <circle id="Ellipse_26" data-name="Ellipse 26" cx="9.804" cy="9.804" r="9.804" transform="translate(0 22.947)" fill="#e94560" opacity="0.1"/>
  <circle id="Ellipse_27" data-name="Ellipse 27" cx="9.804" cy="9.804" r="9.804" transform="translate(9.398 71.358)" fill="#e94560" opacity="0.1"/>
  <circle id="Ellipse_28" data-name="Ellipse 28" cx="9.804" cy="9.804" r="9.804" transform="translate(272.522 53.538)" fill="#e94560" opacity="0.1"/>
  <path id="Tracé_172" data-name="Tracé 172" d="M354.127,311.712a10.55,10.55,0,0,1-.143,2.461c-.541,2.512-2.829,4.238-5.044,5.547s-4.649,2.548-5.966,4.757a8.1,8.1,0,0,0,.782,8.752,12.9,12.9,0,0,0,7.856,4.6,18.191,18.191,0,0,0,15.772-4.3,17.2,17.2,0,0,0,5.222-15.415c-2.256.316-4.265-1.674-5-3.832s-.579-4.5-.863-6.761a2.321,2.321,0,0,0-.335-1.082,2.43,2.43,0,0,0-1.4-.76c-2.607-.717-6.994-2.285-9.7-1.685C352.885,304.545,354.086,309.668,354.127,311.712Z" transform="translate(-258.294 -246.981)" fill="#be6f72"/>
  <path id="Tracé_173" data-name="Tracé 173" d="M354.127,311.712a10.55,10.55,0,0,1-.143,2.461c-.541,2.512-2.829,4.238-5.044,5.547s-4.649,2.548-5.966,4.757a8.1,8.1,0,0,0,.782,8.752,12.9,12.9,0,0,0,7.856,4.6,18.191,18.191,0,0,0,15.772-4.3,17.2,17.2,0,0,0,5.222-15.415c-2.256.316-4.265-1.674-5-3.832s-.579-4.5-.863-6.761a2.321,2.321,0,0,0-.335-1.082,2.43,2.43,0,0,0-1.4-.76c-2.607-.717-6.994-2.285-9.7-1.685C352.885,304.545,354.086,309.668,354.127,311.712Z" transform="translate(-258.294 -246.981)" opacity="0.1"/>
  <path id="Tracé_174" data-name="Tracé 174" d="M340.619,745.715a54.078,54.078,0,0,1-8.043,3.413,42.588,42.588,0,0,1-4.619,1.179,29.075,29.075,0,0,1,.338-6.22,33.115,33.115,0,0,0,.6-3.551,9.315,9.315,0,0,0-1.068-4.987c3.013-.411,5.874-1.082,8.9-.884l.192.014a3.375,3.375,0,0,1,1.055.2,2.848,2.848,0,0,1,1.144,1.006,6.927,6.927,0,0,1,.43.663,10.547,10.547,0,0,1,1.247,4.936A32.826,32.826,0,0,1,340.619,745.715Z" transform="translate(-247.937 -561.253)" fill="#be6f72"/>
  <path id="Tracé_175" data-name="Tracé 175" d="M405.568,749.151q-1.444.338-2.834.771a50.464,50.464,0,0,0-7.272,2.994,10.735,10.735,0,0,1-.222-2.239,12.506,12.506,0,0,1,9.56-1.966,1.263,1.263,0,0,1,.606.243.813.813,0,0,1,.162.2Z" transform="translate(-297.116 -571.348)" fill="#be6f72"/>
  <path id="Tracé_176" data-name="Tracé 176" d="M345.174,613.465a20.768,20.768,0,0,1-1.082,5.206c-.679,1.785-1.782,3.516-1.642,5.422.062.828.343,1.725.384,2.545q-1.168.214-2.307.481-1.444.338-2.834.771a50.469,50.469,0,0,0-7.272,2.994c-.462.227-.92.457-1.377.69h0c-.189-.024-.376-.054-.565-.089a5.534,5.534,0,0,1-3.54-1.934,3.1,3.1,0,0,1-.408-.811c-.441-1.317.019-2.959-.9-4l-.043.038-.032.022a9.08,9.08,0,0,1-1.644,1.185h0a11.02,11.02,0,0,1-8.925.86,9.781,9.781,0,0,1-1.674-.752c-1.239-.706-2.434-1.893-2.337-3.31.054-.79.506-1.547.384-2.329a4.872,4.872,0,0,0-.733-1.52c-1.809-3.245.349-7.418-.787-10.945-.027-.084-.057-.168-.087-.249-.084-.23-.178-.452-.27-.673-.233-.517-.492-1.025-.7-1.555a9.057,9.057,0,0,1-.406-1.371,17.164,17.164,0,0,1-.27-4.116,43.058,43.058,0,0,1,1.574-10.85c.165-.622.349-1.5.592-2.458h0a18.824,18.824,0,0,1,.957-2.953,3.84,3.84,0,0,1,2.283-2.472c1.515-.354,3.83.395,5.366.579l6.072.725,12.14,1.452c2.1.252,4.3.541,6.026,1.72.114.078.224.16.335.246a6.856,6.856,0,0,1,1.217,1.239c.124.16.243.327.357.5a11.261,11.261,0,0,1,1,1.909c1.506,3.619,1.542,7.656,1.552,11.575A118.276,118.276,0,0,1,345.174,613.465Z" transform="translate(-232.073 -449.314)" fill="#3f3d56"/>
  <path id="Tracé_177" data-name="Tracé 177" d="M357.914,690.356c-.365-1.406-1.136-3.443-1.249-4a50.715,50.715,0,0,1-.828-5.631c-.3-3.37-.841-8.113.349-11.318a7.771,7.771,0,0,1,2.615,3.429c1.871,4.168-.235,9.284,1.523,13.5a2.223,2.223,0,0,1,.241.811,1.963,1.963,0,0,1-.373,1l-.592.984Z" transform="translate(-268.088 -513.673)" opacity="0.1"/>
  <path id="Tracé_178" data-name="Tracé 178" d="M486,200.7c1.99-3.245,4.717-6.437,4.546-10.231a20.271,20.271,0,0,0-.844-4,25.519,25.519,0,0,1-.187-11.708,13.222,13.222,0,0,1,9.563,2.142,5.458,5.458,0,0,1,2.112,2.375,6.872,6.872,0,0,1,.235,2.945c-.149,2.274-.352,4.7-1.752,6.491-.435.56-.971,1.033-1.4,1.6a10.35,10.35,0,0,0-1.336,2.767l-4.6,12.508c-2.32,6.3-4.836,12.9-9.947,17.26-.124.105-3.786-5.1-4.089-5.617-1.225-2.139-.69-3.043.792-4.833C482.025,208.854,483.613,204.583,486,200.7Z" transform="translate(-357.225 -152.676)" fill="#be6f72"/>
  <path id="Tracé_179" data-name="Tracé 179" d="M266.244,665.33a20.77,20.77,0,0,1-.235,2.788c-.049.341-.105.679-.173,1.017-.922,4.814-3.218,9.393-4.825,14.082a81.829,81.829,0,0,0-3.786,17.709c-2.128,0-4.26-.046-6.366-.157h-.065c-.719-.038-1.441-.081-2.164-.135.652-5.733-.541-11.748.625-17.487.471-2.31,1.274-4.552,1.758-6.85a19.393,19.393,0,0,0,.338-2.05,5.5,5.5,0,0,1,.4-1.923,1.417,1.417,0,0,1,.092-.165,4.633,4.633,0,0,1,.952-1.082,23.753,23.753,0,0,1,11.645-5.552C265.052,665.441,265.649,665.371,266.244,665.33Z" transform="translate(-190.157 -510.696)" fill="#fbbebe"/>
  <path id="Tracé_180" data-name="Tracé 180" d="M266.244,665.33a20.77,20.77,0,0,1-.235,2.788c-.049.341-.105.679-.173,1.017-.922,4.814-3.218,9.393-4.825,14.082a81.829,81.829,0,0,0-3.786,17.709c-2.128,0-4.26-.046-6.366-.157h-.065c-.719-.038-1.441-.081-2.164-.135.652-5.733-.541-11.748.625-17.487.471-2.31,1.274-4.552,1.758-6.85a19.393,19.393,0,0,0,.338-2.05,5.5,5.5,0,0,1,.4-1.923,1.417,1.417,0,0,1,.092-.165,4.633,4.633,0,0,1,.952-1.082,23.753,23.753,0,0,1,11.645-5.552C265.052,665.441,265.649,665.371,266.244,665.33Z" transform="translate(-190.157 -510.696)" opacity="0.1"/>
  <path id="Tracé_181" data-name="Tracé 181" d="M212.75,685.4a42.379,42.379,0,0,1-.371,4.492c-.722,6.088-.857,12.441-1.352,18.62-.719-.038-1.441-.081-2.164-.135-3.289-.224-6.566-.571-9.8-1.044q.373-2.088.752-4.176a22.608,22.608,0,0,0,.527-5.16,30.2,30.2,0,0,0-.871-4.833c-.744-3.435-1.16-7.14-2.385-10.38a13.523,13.523,0,0,0-2.991-4.868c5.068-1.99,9.939-2.1,15.383-1.893a1.95,1.95,0,0,1,1.1.27,1.866,1.866,0,0,1,.554.838,20.979,20.979,0,0,1,1.523,6.172A20.248,20.248,0,0,1,212.75,685.4Z" transform="translate(-150.374 -518.444)" fill="#fbbebe"/>
  <circle id="Ellipse_29" data-name="Ellipse 29" cx="10.547" cy="10.547" r="10.547" transform="translate(92.653 42.241)" fill="#be6f72"/>
  <path id="Tracé_182" data-name="Tracé 182" d="M343.51,363.839c1.352-2.307,2.537-5.187,5.138-5.828a7.982,7.982,0,0,1,4.427.622,2.164,2.164,0,0,1,1.082.627,2.126,2.126,0,0,1,.327,1.12,73.3,73.3,0,0,1-.046,14.334c-.343,3.372-.922,6.729-1.025,10.117-.143,4.7.63,9.4.376,14.088a64.764,64.764,0,0,1-1.744,10.526l-3.245,14.55a2.48,2.48,0,0,1-.522,1.231,2.434,2.434,0,0,1-.957.541,35.634,35.634,0,0,1-28.838-2.258,8.749,8.749,0,0,1-3.1-2.485,7.283,7.283,0,0,1-.83-5.485c.352-1.866,1.112-3.627,1.623-5.458a42,42,0,0,0,1.155-8.746,69.3,69.3,0,0,0,.062-11.629c-.284-2.658-.876-5.276-1.323-7.913a87.284,87.284,0,0,1-1.141-12.016c-.068-2.4.043-5.074,1.707-6.807a7.841,7.841,0,0,1,2.994-1.763,8.848,8.848,0,0,1,5.777-.46c1.866.622,3.37,2.58,2.929,4.5-.2.89-.779,1.669-.919,2.572a3.707,3.707,0,0,0,1.352,3.207C333.639,375.425,341.079,368.014,343.51,363.839Z" transform="translate(-238.117 -286.399)" fill="#e3e8f4"/>
  <path id="Tracé_183" data-name="Tracé 183" d="M401.18,313.239a7.976,7.976,0,0,1,4.622-.27c.976.233,2.031.644,2.932.208.327-.157.6-.414.928-.56.892-.392,2.05.089,2.84-.481a2.8,2.8,0,0,0,.828-1.609A14.428,14.428,0,0,1,418.1,303.3c-.284,2.074-.49,4.435.882,6.02a6.011,6.011,0,0,0,2.388,1.523,7.142,7.142,0,0,0,4.016.565,3.482,3.482,0,0,0,2.815-2.648c-.046,2.036-1.985,3.459-2.529,5.425-.206.736-.187,1.517-.33,2.269-.365,1.92-1.736,3.462-2.934,5.009a35.634,35.634,0,0,0-7.086,17.1,8.25,8.25,0,0,1-.46,2.164,13.606,13.606,0,0,1-.9,1.547c-1.982,3.348-1.371,7.573-.7,11.4a163.389,163.389,0,0,0,3.805,17.7,6.146,6.146,0,0,0,1.366,2.767c-.235,2.361-2.618,3.437-4.76,4.457a23.349,23.349,0,0,0-5.788,3.919,4.561,4.561,0,0,0-1.45,2.015c-.211.76-.06,1.6-.33,2.334s-1.352,1.268-1.828.646c-.6-2.226.422-4.554.376-6.859-.032-1.555-.541-3.067-.614-4.622a14.79,14.79,0,0,1,1-5.16c1.536-4.654,3.391-9.266,3.924-14.136s-.462-10.19-3.919-13.666c-4.1-4.143-6.38-9.76-10.777-13.566-.7-.6-1.487-1.352-1.371-2.266a2.524,2.524,0,0,1,.517-1.1c1.509-2.131,3.516-3.87,5.139-5.909S401.475,315.835,401.18,313.239Z" transform="translate(-295.4 -246.576)" fill="#3f3d56"/>
  <path id="Tracé_184" data-name="Tracé 184" d="M321.769,354.577a7.909,7.909,0,0,1-.771.876,2.542,2.542,0,0,1-1.214.376,39.263,39.263,0,0,1-4.806.43,14.835,14.835,0,0,0-4.057.251,7.241,7.241,0,0,0-4.173,3.6,17.841,17.841,0,0,0-1.688,5.374,71.867,71.867,0,0,0-1.231,12.411,32.64,32.64,0,0,0,5.909-6.134c1.3-1.761,2.475-3.708,4.327-4.884.852-.541,1.809-.9,2.667-1.425a15.292,15.292,0,0,0,4.216-4.6c.876-1.274,3.41-3.762,3.61-5.287A1.557,1.557,0,0,0,321.769,354.577Z" transform="translate(-230.428 -283.552)" fill="#3f3d56"/>
  <path id="Tracé_185" data-name="Tracé 185" d="M371.789,237.662a8.551,8.551,0,0,1,.957.668c1.836,1.282,4.295,1.044,6.515.752a4.89,4.89,0,0,0,1.966-.541,3.073,3.073,0,0,0,1.287-2.869,5.712,5.712,0,0,0-1.323-2.975,10.7,10.7,0,0,0-7.4-4.035,4.76,4.76,0,0,0-2.215.235,17.845,17.845,0,0,0-2.337,1.6c-2.377,1.46-6.039.811-7.573,3.143-1.122,1.72-.322,4.057-.852,6.034-.395,1.477-1.533,2.821-1.314,4.327a6.98,6.98,0,0,0,1.036,2.245,9.92,9.92,0,0,1,1.241,5.471c1.041.736,2.494-.408,2.783-1.647s-.043-2.558.2-3.808c.435-2.193,2.372-3.8,3.245-5.815C368.641,239,369.663,236.566,371.789,237.662Z" transform="translate(-271.026 -192.094)" fill="#3f3d56"/>
  <path id="Tracé_186" data-name="Tracé 186" d="M279.077,327.671a2.038,2.038,0,0,0,.141,1.452c.541.811,1.78.519,2.753.641A3.75,3.75,0,0,1,284.9,332.9a10.3,10.3,0,0,1-.441,4.527q-1.3,5.038-3.1,9.934c-3.229-.381-6.629-1.623-8.343-4.379-1.558-2.507-1.4-5.7-2.388-8.481a21.2,21.2,0,0,0-3.175-5.333c1.982.249,3.4-2.018,3.516-4.013s-.511-4.022-.084-5.971c.1-.462,7.913,1,8.673,1.523C281.751,322.224,279.423,325.556,279.077,327.671Z" transform="translate(-203.887 -258.096)" fill="#fbbebe"/>
  <path id="Tracé_187" data-name="Tracé 187" d="M279.077,327.671a2.038,2.038,0,0,0,.141,1.452c.541.811,1.78.519,2.753.641A3.75,3.75,0,0,1,284.9,332.9a10.3,10.3,0,0,1-.441,4.527q-1.3,5.038-3.1,9.934c-3.229-.381-6.629-1.623-8.343-4.379-1.558-2.507-1.4-5.7-2.388-8.481a21.2,21.2,0,0,0-3.175-5.333c1.982.249,3.4-2.018,3.516-4.013s-.511-4.022-.084-5.971c.1-.462,7.913,1,8.673,1.523C281.751,322.224,279.423,325.556,279.077,327.671Z" transform="translate(-203.887 -258.096)" opacity="0.1"/>
  <circle id="Ellipse_30" data-name="Ellipse 30" cx="10.547" cy="10.547" r="10.547" transform="translate(62.903 45.216)" fill="#fbbebe"/>
  <path id="Tracé_188" data-name="Tracé 188" d="M221.943,272.366c.384-.6-.27-1.439.03-2.085.178-.389.63-.557.979-.811a3.649,3.649,0,0,0,1.02-1.322,15.372,15.372,0,0,0,1.406-10.264c-.249-1.168-.471-2.721.6-3.245a1.939,1.939,0,0,1,.944-.162c1.926.062,3.786,1.352,5.655.9a3.245,3.245,0,0,0,2.38-2.832c.122-1.747-1.187-3.245-2.475-4.422-2.318-2.131-5.85-2.6-9-2.656l-5.855-.1c-1.874-.032-3.976.027-5.279,1.371-1.877,1.934-.933,5.1-1.2,7.778a8.113,8.113,0,0,1-2.975,5.449c-1.214.968-2.886,1.893-2.864,3.44a5.593,5.593,0,0,0,.381,1.544,7.452,7.452,0,0,1-1.12,6.031A16.083,16.083,0,0,1,200,275.306a12.72,12.72,0,0,0-2.629,2.109,6.22,6.22,0,0,0-1.371,3.5,4.6,4.6,0,0,0,.573,2.821c1.144,1.828,3.889,2.1,5.769,1.036a9.388,9.388,0,0,0,3.786-5.084c.454-1.2.917-2.569,2.08-3.107,1.471-.684,3.191.4,4.149,1.709s1.547,2.913,2.772,3.978a4.951,4.951,0,0,0,6.81-.562,7.656,7.656,0,0,0,1.352-5.184A7.554,7.554,0,0,0,221.943,272.366Z" transform="translate(-151.74 -204.305)" fill="#3f3d56"/>
  <path id="Tracé_189" data-name="Tracé 189" d="M184.571,354.694a3.882,3.882,0,0,1-3.356-1.16,13.328,13.328,0,0,1-2.126-3,52.9,52.9,0,0,0-5.45-7.556c-1.774-2.047-4.243-4.127-6.877-3.494a6.526,6.526,0,0,0-2.4,1.285,17.509,17.509,0,0,0-6.537,15.626c.206,1.723.673,3.408.868,5.138a32.934,32.934,0,0,1,.114,4.292c-.073,4.36-.222,8.971-2.572,12.643-3.643,5.679-5.593,12.462-8.268,18.661a63.7,63.7,0,0,0-3.159,10.466q-.755,3.159-1.506,6.315l-3.272,13.766a9.183,9.183,0,0,0-.319,4.327,6.417,6.417,0,0,0,4.635,4.205,24.254,24.254,0,0,0,6.51.519,36.439,36.439,0,0,1,12.3,2.009,13.193,13.193,0,0,0,3.429,1.006,7.979,7.979,0,0,0,3.5-.646c3.048-1.179,5.66-3.245,8.468-4.914a33.46,33.46,0,0,1,5.517-2.669,6.051,6.051,0,0,0,2.658-1.487,4.8,4.8,0,0,0,.89-2.123c.914-4.262.3-8.679,0-13.027s-2.9-8.944-.749-12.735a10.2,10.2,0,0,0,1.171-2.35c.292-1.109.046-2.3.292-3.421a17.693,17.693,0,0,1,.914-2.364,12.462,12.462,0,0,0,.584-4.406,48.345,48.345,0,0,0-1.028-9.736c-.852-4.057,1.966-8.067,3.581-11.9a18.9,18.9,0,0,0,1.639-4.135,12.747,12.747,0,0,0-.27-4,35.024,35.024,0,0,1-.379-6.22,20.927,20.927,0,0,0-.2-5.582,5.088,5.088,0,0,0-3.551-3.949,1.45,1.45,0,0,0-1.222.192,1.582,1.582,0,0,0-.43.757c-.6,1.823-.479,3.786-.811,5.679S186.437,354.293,184.571,354.694Z" transform="translate(-110.582 -272.886)" fill="#f86d70"/>
  <path id="Tracé_190" data-name="Tracé 190" d="M197.284,434.366c.111-.749-.238-1.744-1-1.717-.7.027-1.009.9-1.006,1.6s.1,1.5-.4,2c-.438.435-1.163.422-1.671.776a1.374,1.374,0,0,0-.576,1.128c0,.376.17.736.181,1.112s-.241.811-.614.787a1.7,1.7,0,0,0,.246,2.055c.195.189.449.352.514.617a1.487,1.487,0,0,1-.043.554,1.452,1.452,0,0,0,1.149,1.658.911.911,0,0,0,.049,1.352,2.115,2.115,0,0,0,1.452.417,8.828,8.828,0,0,0,3.41-.706,2.034,2.034,0,0,0,.941-.649.811.811,0,0,0-.078-1.049,1.59,1.59,0,0,0,1.5-.27c.479-.568-.035-1.409-.541-1.958a1.082,1.082,0,0,0,.5-1.926c-.173-.127-.408-.238-.433-.452s.157-.352.233-.541c.173-.425-.222-.857-.6-1.114-.9-.6-2.234-.59-3.037-1.2S197.168,435.177,197.284,434.366Z" transform="translate(-148.817 -340.943)" fill="#be6f72"/>
  <path id="Tracé_191" data-name="Tracé 191" d="M403.2,287.257a12.8,12.8,0,0,1-1.972.046.43.43,0,0,0-.473.373l-1.258,9.433a3.83,3.83,0,0,1-.811,1.869,4.073,4.073,0,0,0-.917,3.113v16.024s-.081,2.137,1.561,2.137a23.731,23.731,0,0,0,5.917,0s1.314-.249,1.314-2.22V302.253a3.859,3.859,0,0,0-.811-3.137,3.927,3.927,0,0,1-.787-1.858l-1.306-9.631A.43.43,0,0,0,403.2,287.257Z" transform="translate(-298.937 -234.871)" fill="#3f3d56"/>
  <path id="Tracé_192" data-name="Tracé 192" d="M403.2,287.257a12.8,12.8,0,0,1-1.972.046.43.43,0,0,0-.473.373l-1.258,9.433a3.83,3.83,0,0,1-.811,1.869,4.073,4.073,0,0,0-.917,3.113v16.024s-.081,2.137,1.561,2.137a23.731,23.731,0,0,0,5.917,0s1.314-.249,1.314-2.22V302.253a3.859,3.859,0,0,0-.811-3.137,3.927,3.927,0,0,1-.787-1.858l-1.306-9.631A.43.43,0,0,0,403.2,287.257Z" transform="translate(-298.937 -234.871)" opacity="0.1"/>
  <rect id="Rectangle_1" data-name="Rectangle 1" width="7.97" height="13.476" rx="3.985" transform="translate(99.287 67.506)" fill="#ff748f"/>
  <path id="Tracé_193" data-name="Tracé 193" d="M511.307,136.406a12.46,12.46,0,0,1-1.8.811.433.433,0,0,0-.295.525l2.472,9.2a3.818,3.818,0,0,1-.022,2.034,4.057,4.057,0,0,0,.352,3.226l6.172,14.788s.746,2,2.264,1.368a23.563,23.563,0,0,0,5.463-2.288s1.117-.736.36-2.553l-6.077-14.561a3.87,3.87,0,0,0-1.955-2.585,3.935,3.935,0,0,1-1.441-1.409l-4.914-8.384A.433.433,0,0,0,511.307,136.406Z" transform="translate(-380.254 -124.783)" fill="#3f3d56"/>
  <rect id="Rectangle_2" data-name="Rectangle 2" width="7.97" height="13.476" rx="3.985" transform="translate(132.291 27.496) rotate(-22.65)" fill="#e94560"/>
  <path id="Tracé_194" data-name="Tracé 194" d="M226.751,342.42c-2.907,1.2-4.057,4.925-3.375,7.992s2.734,5.623,4.736,8.054l5.609,6.842c1.55,1.893,3.245,3.886,5.609,4.546,3.456.966,6.913-1.236,9.9-3.226a149.154,149.154,0,0,1,28.44-14.81,9.565,9.565,0,0,0,2.78-1.439,5.126,5.126,0,0,0,1.206-5.95,5.957,5.957,0,0,0-5.266-3.262,7.115,7.115,0,0,0-5.6,2.878c-.625.83-1.082,1.78-1.685,2.623-1.525,2.12-3.905,3.432-6.234,4.617a159.212,159.212,0,0,1-17.309,7.573,4.232,4.232,0,0,1-3.321.249,4.033,4.033,0,0,1-1.425-1.525,37.879,37.879,0,0,1-4.084-8.7c-.738-2.3-1.336-4.8-3.11-6.437a6.193,6.193,0,0,0-8.955,1.082s-2.21,3.232-.857,4.584S226.751,342.42,226.751,342.42Z" transform="translate(-171.593 -274.08)" fill="#fbbebe"/>
  <path id="Tracé_195" data-name="Tracé 195" d="M784.508,294.164a8.254,8.254,0,0,1,.349,3.327c-.07,1.368-.414,2.975-1.685,3.5-.828.333-1.85.081-2.585.584-.892.606-.849,1.909-.711,2.975.381,2.929.811,5.966,2.407,8.443a17.936,17.936,0,0,0,3.194,3.491c2.345,2.115,4.917,4.181,8,4.887a3.346,3.346,0,0,0,1.542.065,3.191,3.191,0,0,0,1.333-.811c1.785-1.639,2.7-3.978,3.894-6.1a22.657,22.657,0,0,0,2.318-4.646,8.113,8.113,0,0,0-2.483-8.186c-.527-.452-1.112-.83-1.623-1.3a8.324,8.324,0,0,1-2.434-4.725,20.676,20.676,0,0,1-.116-5.409,29.431,29.431,0,0,0-8.03.646,15.637,15.637,0,0,0-3.889.9C782.791,292.444,784.181,293.258,784.508,294.164Z" transform="translate(-577.672 -237.016)" fill="#fbbebe"/>
  <path id="Tracé_196" data-name="Tracé 196" d="M784.508,294.164a8.254,8.254,0,0,1,.349,3.327c-.07,1.368-.414,2.975-1.685,3.5-.828.333-1.85.081-2.585.584-.892.606-.849,1.909-.711,2.975.381,2.929.811,5.966,2.407,8.443a17.936,17.936,0,0,0,3.194,3.491c2.345,2.115,4.917,4.181,8,4.887a3.346,3.346,0,0,0,1.542.065,3.191,3.191,0,0,0,1.333-.811c1.785-1.639,2.7-3.978,3.894-6.1a22.657,22.657,0,0,0,2.318-4.646,8.113,8.113,0,0,0-2.483-8.186c-.527-.452-1.112-.83-1.623-1.3a8.324,8.324,0,0,1-2.434-4.725,20.676,20.676,0,0,1-.116-5.409,29.431,29.431,0,0,0-8.03.646,15.637,15.637,0,0,0-3.889.9C782.791,292.444,784.181,293.258,784.508,294.164Z" transform="translate(-577.672 -237.016)" opacity="0.1"/>
  <path id="Tracé_197" data-name="Tracé 197" d="M613.978,194.411c-4.392-1.506-6.491-7.391-11.088-8.051-.725-.105-1.469-.065-2.18-.233-2.648-.627-3.786-3.689-4.552-6.3A102.031,102.031,0,0,0,585.422,154.9c-2.02-3.245-5.214-5.912-6.672-9.466a7.349,7.349,0,0,0-1.109-2.377c-.6-.641-1.893-.733-2.22.084a1.894,1.894,0,0,0-.06.9l.316,3.367-5.5-.495a3.213,3.213,0,0,0-1.523.108,2.583,2.583,0,0,0-1.2,1.247c-1.861,3.5.122,8.078,3.4,10.291,3.835,2.583,9.312,2.975,11.859,6.829,1.515,2.293,1.544,5.244,2.542,7.805.476,1.225,1.171,2.35,1.725,3.537a73.058,73.058,0,0,1,2.418,7.083,62.436,62.436,0,0,0,4.646,9.639,24.83,24.83,0,0,0,4.76,6.713,23.407,23.407,0,0,0,4.533,2.975c3.911,2.137,8.522,4.192,12.665,2.553A27.737,27.737,0,0,0,613.978,194.411Z" transform="translate(-422.234 -129.304)" fill="#fbbebe"/>
  <path id="Tracé_198" data-name="Tracé 198" d="M753.432,732.734c-.333,3.529-2.475,6.726-2.975,10.123-3.3-.516-6.548-1.182-9.69-1.939-.387-.092-.771-.187-1.158-.27,1.78-4.868.23-10.32.7-15.5.046-.5.111-1,.2-1.488,4.076-1.39,7.756-3.245,12.03-2.7.084.865.17,1.734.254,2.6q.257,2.594.508,5.182A21.01,21.01,0,0,1,753.432,732.734Z" transform="translate(-548.352 -551.204)" fill="#fbbebe"/>
  <path id="Tracé_199" data-name="Tracé 199" d="M856.4,741.312c-1.6.487-3.245.911-4.963,1.26-.287.06-.576.116-.865.17-1.758.33-3.537.571-5.336.736-.184-3.759-2.7-7.216-3.072-11.075a16.261,16.261,0,0,1,.03-2.88c.032-.379.07-.757.105-1.136l.763-7.781a11.989,11.989,0,0,1,1.831-.089c3.516.084,6.715,1.606,10.2,2.794a24.317,24.317,0,0,1,.27,4.965c-.133,4.224-.811,8.5.757,12.376C856.21,740.871,856.307,741.09,856.4,741.312Z" transform="translate(-623.135 -550.955)" fill="#fbbebe"/>
  <path id="Tracé_200" data-name="Tracé 200" d="M717.057,577.5c.473,3.689-1.412,7.221-2.228,10.848a38.389,38.389,0,0,0-.687,7.329l-.427,14.742a13.146,13.146,0,0,0,.368,4.389c.9,2.834,3.686,4.749,6.583,5.431a24.732,24.732,0,0,0,8.876-.054,9.247,9.247,0,0,0,4.154-1.252c1.647-1.149,2.366-3.2,2.988-5.106l1.755-5.39c2.02,4.549,1.166,9.522,2.377,14.35a2.78,2.78,0,0,0,.541,1.225,3.033,3.033,0,0,0,2.118.711c5.3.373,10.674.744,15.889-.27a6.91,6.91,0,0,0,3.919-1.785c1.152-1.252,1.352-3.094,1.339-4.8-.073-5.844-2.185-11.483-2.656-17.309-.2-2.5-.1-5.006-.192-7.51a50.3,50.3,0,0,0-.527-5.625,7.555,7.555,0,0,0-.692-2.461c-.811-1.515-2.5-2.337-4.092-2.975C744.063,576.956,730.427,577,717.057,577.5Z" transform="translate(-529.442 -446.462)" fill="#f86d70"/>
  <circle id="Ellipse_31" data-name="Ellipse 31" cx="11.629" cy="11.629" r="11.629" transform="translate(198.938 35.21)" fill="#fbbebe"/>
  <path id="Tracé_201" data-name="Tracé 201" d="M750.365,325.43c-.863,1.893-2.22,3.786-4.241,4.268a5.8,5.8,0,0,1-5.2-1.782,20.645,20.645,0,0,1-3.213-4.722,8.855,8.855,0,0,0-2.634-3.2,7.887,7.887,0,0,0-5.555-.706,25.48,25.48,0,0,1-5.679.728c-2.388-.16-4.822-1.352-7.075-.557.73,3.267.468,6.859.384,10.207a4.6,4.6,0,0,1-.216,1.525,4.929,4.929,0,0,1-.787,1.266l-2.164,2.788a13.5,13.5,0,0,1,5.138,6.786,17.068,17.068,0,0,1,.3,4.917c-.051,4.844,1,9.669.668,14.5-.389,5.66-2.65,11.01-3.816,16.562a43.361,43.361,0,0,0-.557,14.5,136.483,136.483,0,0,0,37.425,7.045c2.264.124,4.708.143,6.566-1.158a7.143,7.143,0,0,0,2.7-4.8,21.321,21.321,0,0,0-.114-5.642q-.836-7.613-1.669-15.226a36.247,36.247,0,0,1,.611-15.094l2.7-13a26.748,26.748,0,0,1,1.542-5.431c.627-1.406,1.5-2.7,2.188-4.073a17.989,17.989,0,0,0,1.688-5.212,3.453,3.453,0,0,0-.022-1.6,3.693,3.693,0,0,0-2-1.855,58.064,58.064,0,0,0-16-5.612C750.971,322.452,751.044,323.945,750.365,325.43Z" transform="translate(-529.661 -258.108)" fill="#e3e8f4"/>
  <path id="Tracé_202" data-name="Tracé 202" d="M798.955,235.068c1.352-2.591,3.881-4.408,5.349-6.94a10.258,10.258,0,0,0,.33-9.466,34.24,34.24,0,0,1-1.623-3.126c-.452-1.255-.495-2.637-1.017-3.865a7.145,7.145,0,0,0-3.959-3.592,21.213,21.213,0,0,0-5.336-1.193l-6.145-.828a6.761,6.761,0,0,0-2.677,0,2.27,2.27,0,0,0-1.742,1.842c-.084,1.063.849,2.053.633,3.1-.078.368-.295.741-.17,1.1a1.114,1.114,0,0,0,.541.541c1.458.811,3.2.884,4.779,1.414s3.164,1.861,3,3.516c-.087.89-.66,1.815-.271,2.613.373.738,1.352.874,2.134,1.1a5.719,5.719,0,0,1,3.935,6.085c-.114.811-.406,1.588-.465,2.4-.2,2.85.252,3.665,2.58,5.322Z" transform="translate(-579.373 -175.534)" fill="#3f3d56"/>
  <path id="Tracé_203" data-name="Tracé 203" d="M880.029,336.3a3.945,3.945,0,0,1-.289,1.577c-.844,1.8-3.427,1.685-5.138,2.7-2.131,1.271-2.6,4.108-2.8,6.58a29.592,29.592,0,0,0,.2,8.384,11.272,11.272,0,0,0,4.257,7.032,10.838,10.838,0,0,0,9.82.83,21.943,21.943,0,0,0,8.2-5.993,26.126,26.126,0,0,0,5.355-8.054,2.565,2.565,0,0,0,.224-1.655c-.251-.811-1.136-1.179-1.855-1.623a8.187,8.187,0,0,1-3.381-4.652,20.2,20.2,0,0,1-.7-5.817c-.022-2.036-.027-4.262-1.325-5.834s-3.548-2.012-5.6-2c-1.677,0-6.318.16-7.462,1.623C878.6,330.618,880.1,334.554,880.029,336.3Z" transform="translate(-644.651 -264.435)" fill="#be6f72"/>
  <path id="Tracé_204" data-name="Tracé 204" d="M880.029,336.3a3.945,3.945,0,0,1-.289,1.577c-.844,1.8-3.427,1.685-5.138,2.7-2.131,1.271-2.6,4.108-2.8,6.58a29.592,29.592,0,0,0,.2,8.384,11.272,11.272,0,0,0,4.257,7.032,10.838,10.838,0,0,0,9.82.83,21.943,21.943,0,0,0,8.2-5.993,26.126,26.126,0,0,0,5.355-8.054,2.565,2.565,0,0,0,.224-1.655c-.251-.811-1.136-1.179-1.855-1.623a8.187,8.187,0,0,1-3.381-4.652,20.2,20.2,0,0,1-.7-5.817c-.022-2.036-.027-4.262-1.325-5.834s-3.548-2.012-5.6-2c-1.677,0-6.318.16-7.462,1.623C878.6,330.618,880.1,334.554,880.029,336.3Z" transform="translate(-644.651 -264.435)" opacity="0.1"/>
  <path id="Tracé_205" data-name="Tracé 205" d="M845.369,574.359a2.313,2.313,0,0,0,.563,1.1,2.235,2.235,0,0,0,.911.43c8.876,2.6,18.358,1.566,27.548.5a52.515,52.515,0,0,1-2.872-11.718c-.289-3.313.035-6.761-1.139-9.869-.346-.92-20.522,3.313-22.512,3.656-1.02.176-2.193.116-2.915.925-.871.979-.944,3.31-1.036,4.53A29.77,29.77,0,0,0,845.369,574.359Z" transform="translate(-624.411 -429.97)" fill="#be6f72"/>
  <path id="Tracé_206" data-name="Tracé 206" d="M871.79,715.949c-1.623.752-3.3,1.452-5.03,2.08q-1.406.511-2.872.957c-1.6.487-3.245.911-4.963,1.26q-1.469-3.724-2.94-7.451c-.722-1.828-1.444-3.665-2.047-5.533a34.623,34.623,0,0,1-1.033-3.892,27.763,27.763,0,0,1,.671-13.46c3.748.706,7.413,1.166,11.1,1.7,1.972.271,3.948.59,5.95.966q.235,1.955.427,3.911.292,3.018.479,6.036Q871.95,709.231,871.79,715.949Z" transform="translate(-630.622 -528.629)" fill="#be6f72"/>
  <path id="Tracé_207" data-name="Tracé 207" d="M871.79,715.949c-1.623.752-3.3,1.452-5.03,2.08q-1.406.511-2.872.957c-1.6.487-3.245.911-4.963,1.26q-1.469-3.724-2.94-7.451c-.722-1.828-1.444-3.665-2.047-5.533a34.623,34.623,0,0,1-1.033-3.892,27.763,27.763,0,0,1,.671-13.46c3.748.706,7.413,1.166,11.1,1.7,1.972.271,3.948.59,5.95.966q.235,1.955.427,3.911.292,3.018.479,6.036Q871.95,709.231,871.79,715.949Z" transform="translate(-630.622 -528.629)" opacity="0.1"/>
  <path id="Tracé_208" data-name="Tracé 208" d="M925.915,721.243a17.519,17.519,0,0,1-.833,4.676c-.03.108-.057.214-.084.322a4.457,4.457,0,0,1-2.388-1.79,5.111,5.111,0,0,1-.641-1.5q-1.836,1.25-3.705,2.475a101.553,101.553,0,0,1-13.146,7.537c-1.623.752-3.3,1.452-5.03,2.08q-.541-1.893-1.028-3.811a35.294,35.294,0,0,1-.833-4,20.316,20.316,0,0,1,.9-9.1h0l.122-.352a19.889,19.889,0,0,1,1.771-3.729c.673-1.082,2.007-.9,3.367-.541.617.16,1.241.352,1.809.471,3.535.741,7.2-.024,10.818.178a12.931,12.931,0,0,1,4.963,1.263,6.814,6.814,0,0,1,3.689,4.057,6.048,6.048,0,0,1,.178.811A7.17,7.17,0,0,1,925.915,721.243Z" transform="translate(-663.949 -545.641)" fill="#be6f72"/>
  <path id="Tracé_209" data-name="Tracé 209" d="M659.013,218.486a125.73,125.73,0,0,0-18.426-14.28,50.6,50.6,0,0,1-4.868-3.47c-1.623-1.352-3.037-2.94-4.76-4.157a7.943,7.943,0,0,0-5.923-1.652c-2.069.4-3.908,2.38-3.605,4.452.27,1.823,1.909,3.072,3.424,4.119a73.472,73.472,0,0,0,8.865,5.525,27.794,27.794,0,0,1,3.145,1.677,23.6,23.6,0,0,1,4.825,5.065A70.433,70.433,0,0,0,661.7,232.8c.092.054,3.291-6.85,3.156-7.746C664.562,223,660.484,219.914,659.013,218.486Z" transform="translate(-462.111 -167.439)" fill="#be6f72"/>
  <path id="Tracé_210" data-name="Tracé 210" d="M868.653,605.424c-4.311.27-8.446,1.725-12.662,2.653s-8.8,1.287-12.711-.541l2.38,16.251a7.539,7.539,0,0,1,.073,2.718,10.214,10.214,0,0,0-.611,2.518c.062,1.374,1.352,2.339,2.567,2.975a22.946,22.946,0,0,0,11.467,2.642c-.295,1.19-.663,2.366-.96,3.556,1.988,2.134,5.239,2.277,8.076,2.953,2.164.511,4.192,1.4,6.312,2.023a26.943,26.943,0,0,0,7.9,1.1,8.211,8.211,0,0,0,5.117-1.4c1.723-1.387,2.258-3.746,2.631-5.925a13.481,13.481,0,0,0,.271-3.678,14.579,14.579,0,0,0-1.228-4.057l-3.705-8.992c-.673-1.623-1.352-3.27-2.164-4.836C878.755,610.325,874.357,605.07,868.653,605.424Z" transform="translate(-623.985 -466.979)" fill="#3f3d56"/>
  <path id="Tracé_211" data-name="Tracé 211" d="M802.571,326.048a4.057,4.057,0,0,1,4.246-2.588,7.882,7.882,0,0,1,2.975,1.322l5.166,3.224a22.509,22.509,0,0,1,2.458,1.693c3.562,2.953,4.936,7.808,5.328,12.419s0,9.3.917,13.836c-2.18,1.807-4.6,3.335-6.777,5.138a17.035,17.035,0,0,0-3.162,3.107c-.687.955-1.176,2.047-1.893,2.975a7.156,7.156,0,0,1-4.741,2.634,5.139,5.139,0,0,1,2.164,3.348c.319,1.328.406,2.7.76,4.032.487,1.8,1.5,3.451,1.828,5.29a33.291,33.291,0,0,1,.214,3.857c.422,6.661,5.65,12.484,5.312,19.148a29.033,29.033,0,0,1-6.94-3.648c-.963-.69-1.893-1.436-2.8-2.18l-6.888-5.585a57.249,57.249,0,0,1-9.4-8.865c-1.671-2.131-3.034-4.489-4.711-6.615a14.4,14.4,0,0,0-6.3-4.949c-.376.565-1.044.957-1.42,1.523a1.132,1.132,0,0,0-.157.292,1.279,1.279,0,0,0,.089.746,15.537,15.537,0,0,1,.541,3.351l.17,2.034a6.924,6.924,0,0,1,0,1.623,4.275,4.275,0,0,1-3.608,3.359,1.568,1.568,0,0,1-.76-.024,1.626,1.626,0,0,1-.9-1.16c-.684-2.31.365-4.746.449-7.151a17.179,17.179,0,0,0-.062-1.828l-.162-2.4c-1.571-.327-2.475-2.015-2.891-3.565-1.125-4.184-2.258-8.514-1.607-12.8a10.683,10.683,0,0,0,.271-3.456c-.271-1.533-1.374-2.778-1.955-4.222-1.893-4.708,2.128-9.82,1.755-14.875-.157-2.123-1.5-3.967-2.315-5.936a16.769,16.769,0,0,0-1.623-3.275,18.134,18.134,0,0,0-3.029-3.08,115.66,115.66,0,0,1-9.514-9.374,7.031,7.031,0,0,1-4.1-1.877,3.769,3.769,0,0,1-1.32-2.55,1.992,1.992,0,0,1,1.688-2.064,6.393,6.393,0,0,1,1.669.379c1.753.384,3.516-.906,4.3-2.526a11.835,11.835,0,0,0,.768-5.279,5.063,5.063,0,0,1,4.687,1.642,29.705,29.705,0,0,1,2.948,4.462,6.915,6.915,0,0,0,1.471,1.777c1.3,1.033,3.175,1.228,4.311,2.434.576.617.9,1.433,1.423,2.093,1.482,1.858,4.195,2.085,6.22,3.308s3.435,3.456,5.679,4.181c.811.27,1.7.306,2.5.606a5.6,5.6,0,0,1,3.245,4.622,16.753,16.753,0,0,1-.625,5.874l-1.041,4.519c-.23,1-.406,2.2.333,2.918a3.008,3.008,0,0,0,1.2.6c1.893.617,4,1.222,5.782.349a6.84,6.84,0,0,0,2.1-1.839C799.475,333.948,801.23,329.875,802.571,326.048Z" transform="translate(-554.604 -243.754)" fill="#e94560"/>
  <path id="Tracé_212" data-name="Tracé 212" d="M997.012,670.687a8.035,8.035,0,0,1-3.967,6.042,5.679,5.679,0,0,1-4.3.3,4.457,4.457,0,0,1-2.388-1.79,5.114,5.114,0,0,1-.641-1.5.467.467,0,0,0-.019-.084,11.9,11.9,0,0,1-.252-2.913,38,38,0,0,1,.271-4.541,24.572,24.572,0,0,1,.746-3.754c.5-1.755,1.228-3.445,1.893-5.139.346-.892.679-1.788.952-2.7h0c.165-.541.306-1.1.419-1.661l.041-.2c.022-.114.041-.227.059-.341a16.19,16.19,0,0,1,1.044-4.53c1.623-3.27,4.781-2.434,5.263.581a5.3,5.3,0,0,1,.062.706c.073,3.816-1.441,7.546-.749,11.375a26.5,26.5,0,0,0,.736,2.764c.243.836.462,1.682.63,2.54A14.433,14.433,0,0,1,997.012,670.687Z" transform="translate(-727.698 -496.427)" fill="#be6f72"/>
  <path id="Tracé_213" data-name="Tracé 213" d="M992.406,519.615a30.327,30.327,0,0,0,.314,4.679c.733,3.624,3.516,6.831,3.208,10.515a2.838,2.838,0,0,1-1.193,2.307c-.784.444-2.082.408-2.339,1.3-.073.249-.035.519-.116.765a1.336,1.336,0,0,1-1.352.736,14.9,14.9,0,0,0-1.642-.146c-1.961.165-2.68,2.788-4.427,3.689a3.343,3.343,0,0,1-3.675-.625,4.578,4.578,0,0,1-1.32-3.613,26.81,26.81,0,0,1,.541-2.945,20.434,20.434,0,0,0-.014-5.328,32.21,32.21,0,0,0-1.333-7.694c-.4-1.163-.938-2.274-1.287-3.454a20.083,20.083,0,0,1-.663-5.163c-.105-3.659.146-7.573,2.331-10.515,1.642-2.207,3.995-4,5.852-6.042,1.163-1.279,1.5-1.679,2.783-.6,1.057.89,2.164,2.118,2.283,3.324.325,3.091,0,6.131.579,9.279A71.241,71.241,0,0,1,992.406,519.615Z" transform="translate(-721.604 -387.788)" fill="#e94560"/>
  <circle id="Ellipse_32" data-name="Ellipse 32" cx="13.793" cy="13.793" r="13.793" transform="translate(228.958 44.675)" fill="#be6f72"/>
  <path id="Tracé_214" data-name="Tracé 214" d="M909.38,281.51a1.543,1.543,0,0,1,2.3-.736l3.632,1.517A11.857,11.857,0,0,0,917,276.948a27.578,27.578,0,0,1,.206-3.478c.33-1.693,1.333-3.21,1.566-4.919a15.121,15.121,0,0,0-.349-4.143c-.617-4.251.046-8.589-.308-12.871s-2.072-8.868-5.89-10.834a35.8,35.8,0,0,0-3.372-1.293c-2.507-.955-4.754-2.483-7.232-3.516s-5.387-1.506-7.789-.319-3.8,4.527-2.239,6.707a8.181,8.181,0,0,0,1.985,1.742c1.463,1.047,2.956,2.339,3.294,4.108.606,3.183-2.7,5.679-3.638,8.792a7.476,7.476,0,0,0-.089,3.729c.4,1.844,1.387,3.586,1.352,5.474-.027,2.069-1.266,3.943-1.5,6-.084.755-.032,1.52-.127,2.272a11.716,11.716,0,0,1-.874,2.875c-2.164,5.409-4.357,10.875-7.573,15.737a20.844,20.844,0,0,0,9.907-2.315,16.374,16.374,0,0,1-2.48,5.825,18.769,18.769,0,0,0,7.751-2.7,25.187,25.187,0,0,1-2.461,5.844c.092-.157,1.793-.541,2.107-.719a3.67,3.67,0,0,0,1.487-1.588c.919-1.644,1.493-3.627,2.345-5.336a77.713,77.713,0,0,1,6.3-10.51Z" transform="translate(-653.999 -196.657)" fill="#3f3d56"/>
  <path id="Tracé_215" data-name="Tracé 215" d="M575.2,101.257a12.8,12.8,0,0,1-1.972.046.43.43,0,0,0-.473.373l-1.258,9.433a3.829,3.829,0,0,1-.811,1.869,4.073,4.073,0,0,0-.917,3.113v16.024s-.081,2.137,1.56,2.137a23.73,23.73,0,0,0,5.917,0s1.314-.249,1.314-2.22V116.253a3.859,3.859,0,0,0-.811-3.137,3.926,3.926,0,0,1-.787-1.858l-1.306-9.631A.43.43,0,0,0,575.2,101.257Z" transform="translate(-424.42 -99.175)" fill="#3f3d56"/>
  <path id="Tracé_220" data-name="Tracé 220" d="M3.985,0A3.985,3.985,0,0,1,7.97,3.985V9.491a3.985,3.985,0,0,1-7.97,0V3.985A3.985,3.985,0,0,1,3.985,0Z" transform="translate(145.804 17.203)" fill="#e94560"/>
  <path id="Tracé_216" data-name="Tracé 216" d="M644.2,152.257a12.8,12.8,0,0,1-1.972.046.43.43,0,0,0-.473.373l-1.258,9.433a3.83,3.83,0,0,1-.811,1.869,4.073,4.073,0,0,0-.917,3.113v16.024s-.081,2.137,1.56,2.137a23.732,23.732,0,0,0,5.917,0s1.314-.249,1.314-2.22V167.253a3.859,3.859,0,0,0-.811-3.137,3.926,3.926,0,0,1-.787-1.858l-1.306-9.631A.43.43,0,0,0,644.2,152.257Z" transform="translate(-474.759 -136.382)" fill="#3f3d56"/>
  <rect id="Rectangle_4" data-name="Rectangle 4" width="7.97" height="13.476" rx="3.985" transform="translate(164.464 30.996)" fill="#e94560"/>
  <g id="Groupe_5" data-name="Groupe 5" transform="translate(132.525 104.714)" opacity="0.2">
    <path id="Tracé_217" data-name="Tracé 217" d="M565.779,739.34a5.142,5.142,0,0,1-.1.868q-2.823-.449-5.679-.811v-.233a4.564,4.564,0,0,1,.676-2.293,2.516,2.516,0,0,1,4.579.141A4.562,4.562,0,0,1,565.779,739.34Z" transform="translate(-549.842 -666.578)" fill="#e94560"/>
    <ellipse id="Ellipse_33" data-name="Ellipse 33" cx="3.789" cy="2.894" rx="3.789" ry="2.894" transform="translate(10.185 71.749) rotate(-88.19)" fill="#e94560"/>
    <ellipse id="Ellipse_34" data-name="Ellipse 34" cx="3.789" cy="2.894" rx="3.789" ry="2.894" transform="translate(10.333 67.119) rotate(-88.19)" fill="#e94560"/>
    <ellipse id="Ellipse_35" data-name="Ellipse 35" cx="3.789" cy="2.894" rx="3.789" ry="2.894" transform="translate(10.478 62.489) rotate(-88.19)" fill="#e94560"/>
    <ellipse id="Ellipse_36" data-name="Ellipse 36" cx="3.789" cy="2.894" rx="3.789" ry="2.894" transform="translate(10.625 57.858) rotate(-88.19)" fill="#e94560"/>
    <path id="Tracé_218" data-name="Tracé 218" d="M526.235,502.87a13.417,13.417,0,0,1-1.028-1.623l7.643-1.009-8.227-.2a13.9,13.9,0,0,1,.084-10.991l10.85,6.072-9.939-7.8a13.869,13.869,0,1,1,22.4,16.227,13.738,13.738,0,0,1,1.5,2.577l-10.031,4.814,10.637-3.2a13.885,13.885,0,0,1-2.656,12.957,13.869,13.869,0,1,1-21.787-.687,13.869,13.869,0,0,1,.541-17.141Z" transform="translate(-522.44 -480.747)" fill="#e94560"/>
    <path id="Tracé_219" data-name="Tracé 219" d="M550.718,596.523A13.793,13.793,0,0,1,547.473,605a13.869,13.869,0,1,1-21.787-.687C523.909,601.9,550.767,594.968,550.718,596.523Z" transform="translate(-522.44 -565.047)" fill="#e94560" opacity="0.1"/>
  </g>
</svg>
