<svg xmlns="http://www.w3.org/2000/svg" width="213.584" height="218" viewBox="0 0 213.584 218">
  <g id="Groupe_7" data-name="Groupe 7" transform="translate(0 0)">
    <path id="Tracé_221" data-name="Tracé 221" d="M365.506,357.485c-7.2-9.64-20.388-11.967-26.94-7.071s-8.057,18.2-.853,27.84c6.668,8.923,18.749,11.357,25.4,8.014a.836.836,0,0,0,0,.317l.375,1.855a.846.846,0,0,0,1.35.5l3.177-2.482a.846.846,0,0,0-.157-1.431l-1.709-.813a.837.837,0,0,0-.188-.059C371.088,378.731,372.188,366.428,365.506,357.485Z" transform="translate(-318.708 -274.305)" fill="#ccc"/>
    <path id="Tracé_222" data-name="Tracé 222" d="M380.565,362.673a13.922,13.922,0,0,1,11.66,15.221c-.077.813,1.192.807,1.269,0A15.223,15.223,0,0,0,380.9,361.449C380.1,361.313,379.76,362.536,380.565,362.673Z" transform="translate(-349.525 -283.132)" fill="#fff"/>
    <path id="Tracé_223" data-name="Tracé 223" d="M840.237,359.776c3.876-11.393-1.662-23.582-9.4-26.217s-19.566,3.648-23.442,15.042c-3.588,10.546,1.237,21.885,7.758,25.482a.836.836,0,0,0-.263.176l-1.317,1.358a.846.846,0,0,0,.352,1.4l3.843,1.216a.846.846,0,0,0,1.091-.939l-.3-1.869a.841.841,0,0,0-.058-.188C825.873,376.4,836.641,370.345,840.237,359.776Z" transform="translate(-627.922 -264.526)" fill="#ccc"/>
    <path id="Tracé_224" data-name="Tracé 224" d="M875.628,365.382a13.922,13.922,0,0,1-5.959,18.225c-.714.4.009,1.44.718,1.047a15.223,15.223,0,0,0,6.441-19.686C876.488,364.232,875.285,364.641,875.628,365.382Z" transform="translate(-669.222 -285.185)" fill="#fff"/>
    <path id="Tracé_225" data-name="Tracé 225" d="M576.325,156.52c-.527-12.023-10.114-21.368-18.285-21.01s-16.9,10.506-16.378,22.529c.487,11.129,9.1,19.941,16.483,20.924a.835.835,0,0,0-.182.26l-.734,1.744a.846.846,0,0,0,.835,1.173l4.023-.263a.846.846,0,0,0,.676-1.271l-.955-1.634a.836.836,0,0,0-.122-.155C568.978,177.222,576.814,167.673,576.325,156.52Z" transform="translate(-455.075 -135.5)" fill="#e94560"/>
    <path id="Tracé_226" data-name="Tracé 226" d="M609.709,159.971a13.922,13.922,0,0,1,1.068,19.144c-.522.628.531,1.339,1.049.715a15.223,15.223,0,0,0-1.149-20.681C610.093,158.587,609.121,159.4,609.709,159.971Z" transform="translate(-499.433 -150.829)" fill="#fff"/>
    <circle id="Ellipse_37" data-name="Ellipse 37" cx="17.243" cy="17.243" r="17.243" transform="translate(104.668 91.06)" fill="#e94560"/>
    <path id="Tracé_227" data-name="Tracé 227" d="M628.448,680.83h-4.755a2.1,2.1,0,0,1-2.094-2.094V639.1a2.1,2.1,0,0,1,2.094-2.094h4.755a2.1,2.1,0,0,1,2.094,2.094v39.633a2.1,2.1,0,0,1-2.094,2.094Z" transform="translate(-507.321 -463.194)" fill="#e94560"/>
    <path id="Tracé_228" data-name="Tracé 228" d="M672.4,680.83h-4.755a2.1,2.1,0,0,1-2.094-2.094V639.1a2.1,2.1,0,0,1,2.094-2.094H672.4a2.1,2.1,0,0,1,2.094,2.094v39.633a2.1,2.1,0,0,1-2.094,2.094Z" transform="translate(-536.038 -463.194)" fill="#e94560"/>
    <path id="Tracé_229" data-name="Tracé 229" d="M528.2,507l-2.04,4.3a2.1,2.1,0,0,1-2.79.993l-35.8-17a2.1,2.1,0,0,1-.993-2.79l2.04-4.3a2.1,2.1,0,0,1,2.79-.993l35.8,17A2.1,2.1,0,0,1,528.2,507Z" transform="translate(-418.962 -365.181)" fill="#e94560"/>
    <path id="Tracé_230" data-name="Tracé 230" d="M578.752,527.178a2.078,2.078,0,0,1-.219,1.431l-2.3,4.163a2.1,2.1,0,0,1-2.846.821l-16.824-7.417a2.1,2.1,0,0,1-.821-2.845h0l4.216-7.887a2.094,2.094,0,0,1,2.845-.821l15.11,9.988c.49.27.641,1.867.8,2.4C578.728,527.07,578.741,527.124,578.752,527.178Z" transform="translate(-464.121 -383.055)" fill="#2f2e41"/>
    <path id="Tracé_231" data-name="Tracé 231" d="M680.049,504.211l35.8-17a2.1,2.1,0,0,1,2.79.993l2.04,4.3a2.1,2.1,0,0,1-.993,2.79l-35.8,17a2.1,2.1,0,0,1-2.79-.993l-2.04-4.3a2.1,2.1,0,0,1,.993-2.79Z" transform="translate(-544.732 -365.181)" fill="#e94560"/>
    <path id="Tracé_232" data-name="Tracé 232" d="M663.833,527.017c.155-.537.307-2.134.8-2.4l15.11-9.988a2.094,2.094,0,0,1,2.845.821l4.216,7.887h0a2.1,2.1,0,0,1-.821,2.846l-16.824,7.417a2.1,2.1,0,0,1-2.846-.821l-2.3-4.163a2.078,2.078,0,0,1-.219-1.431C663.8,527.125,663.817,527.07,663.833,527.017Z" transform="translate(-534.863 -383.056)" fill="#2f2e41"/>
    <path id="Tracé_233" data-name="Tracé 233" d="M636.966,445.747l-.018-.644a5.329,5.329,0,0,0,3.05-.689,1.981,1.981,0,0,0,.767-1.459,1.132,1.132,0,0,0-.371-.933A1.952,1.952,0,0,0,638.4,442l-.533.245,1.022-7.472.638.087-.87,6.356a2.275,2.275,0,0,1,2.152.31,1.763,1.763,0,0,1,.6,1.447,2.62,2.62,0,0,1-1.031,1.957A5.929,5.929,0,0,1,636.966,445.747Z" transform="translate(-517.351 -331.054)" fill="#2f2e41"/>
    <rect id="Rectangle_5" data-name="Rectangle 5" width="3.47" height="0.644" transform="translate(125.334 104.36)" fill="#2f2e41"/>
    <rect id="Rectangle_6" data-name="Rectangle 6" width="3.47" height="0.644" transform="translate(114.38 104.36)" fill="#2f2e41"/>
    <path id="Tracé_234" data-name="Tracé 234" d="M605.325,513.017h.7a2.116,2.116,0,1,0,0-4.231H592.48a2.116,2.116,0,1,0,0,4.231h1.272c-10.866,4.944-17.839,23.205-17.839,34.586,0,13.257,9.568,17.534,23.625,17.534s27.28-4.276,27.28-17.534C626.819,536.222,617,517.961,605.325,513.017Z" transform="translate(-477.47 -379.412)" fill="#2f2e41"/>
    <path id="Tracé_235" data-name="Tracé 235" d="M609.384,387.147a2.284,2.284,0,0,0-3.1-1.187c-1.368.565-2.143,1.964-3.465,2.625a6.491,6.491,0,0,1-7.34-1.356,7.772,7.772,0,0,1-1.374-7.972,9.586,9.586,0,0,1,6.328-5.494,13.4,13.4,0,0,1,10.7,1.874.641.641,0,0,0,.932-.379c.867-3.312,4.606-4.275,7.61-3.92a18.4,18.4,0,0,1,8.218,3.28,19.828,19.828,0,0,1,8.472,14.361,20.339,20.339,0,0,1-6.048,16.058c-1.059,1.022-2.293,1.825-3.372,2.821a4.984,4.984,0,0,0-1.933,3.512c.045,3.246,4.317,4.142,6.845,4.239a12.925,12.925,0,0,0,13.308-10.687,13.359,13.359,0,0,0,.209-2.282.635.635,0,0,0-1.269,0,11.971,11.971,0,0,1-3.389,8.254,11.757,11.757,0,0,1-8.439,3.456c-2.018-.01-7.486-.967-5.654-4.159a11.4,11.4,0,0,1,3.11-2.967,19.462,19.462,0,0,0,3.121-3.081,21.626,21.626,0,0,0,4.626-16.5,21.226,21.226,0,0,0-9.01-14.162c-4.5-3.11-12.8-5.86-16.732-.472a5.7,5.7,0,0,0-.9,1.915l.932-.379a15.164,15.164,0,0,0-10.226-2.324,11.421,11.421,0,0,0-7.673,4.771,9.344,9.344,0,0,0-.828,8.783,7.716,7.716,0,0,0,6.915,4.669,7.064,7.064,0,0,0,4.469-1.368,24.824,24.824,0,0,1,2.061-1.8c.448-.269,1.456-.458,1.676.212.254.772,1.48.442,1.224-.337Z" transform="translate(-488.183 -288.692)" fill="#2f2e41"/>
    <path id="Tracé_236" data-name="Tracé 236" d="M723.433,236.379a19.971,19.971,0,0,1,15.621,9.253c.473.756,1.09,1.587.763,2.517a1.655,1.655,0,0,1-1.715,1.145,2.169,2.169,0,0,1-.224-4.18c2.184-.932,4.388.508,6.168,1.657,4.054,2.619,8.514,4.987,13.427,5.285,4.545.276,9.42-1.506,11.948-5.448.442-.69-.656-1.327-1.1-.641-2.507,3.909-7.576,5.313-11.984,4.709a23.3,23.3,0,0,1-7.5-2.546c-1.211-.629-2.386-1.326-3.537-2.058a22.575,22.575,0,0,0-3.47-1.989c-2.023-.831-4.7-.766-6.115,1.147a3.484,3.484,0,0,0,1.906,5.259,2.98,2.98,0,0,0,3.49-3.545,8.693,8.693,0,0,0-1.624-2.939,21.242,21.242,0,0,0-16.059-8.9c-.817-.04-.814,1.229,0,1.269Z" transform="translate(-573.462 -200.587)" fill="#ccc"/>
    <path id="Tracé_237" data-name="Tracé 237" d="M337.961,266.687a19.971,19.971,0,0,1-15.621-9.253c-.473-.756-1.09-1.587-.763-2.517a1.655,1.655,0,0,1,1.715-1.145,2.169,2.169,0,0,1,.224,4.18c-2.184.932-4.388-.508-6.168-1.657-4.054-2.619-8.514-4.987-13.427-5.285-4.546-.276-9.42,1.506-11.948,5.448-.442.69.656,1.327,1.1.641,2.507-3.909,7.576-5.313,11.984-4.709a23.3,23.3,0,0,1,7.5,2.546c1.211.629,2.386,1.326,3.537,2.058a22.574,22.574,0,0,0,3.47,1.989c2.023.831,4.7.766,6.115-1.147a3.484,3.484,0,0,0-1.906-5.259,2.98,2.98,0,0,0-3.49,3.545,8.692,8.692,0,0,0,1.624,2.939,21.242,21.242,0,0,0,16.059,8.9c.816.04.814-1.229,0-1.269Z" transform="translate(-291.871 -210.957)" fill="#ccc"/>
    <path id="Tracé_238" data-name="Tracé 238" d="M597.612,763.193H465.565a.347.347,0,1,1,0-.693H597.612a.347.347,0,0,1,0,.693Z" transform="translate(-405.139 -545.193)" fill="#3f3d56"/>
  </g>
</svg>
